<svg width="30" height="30" viewBox="0 0 30 30" fill="none" xmlns="http://www.w3.org/2000/svg">
<path d="M29.9998 28.6787C29.9995 27.6198 29.3699 26.6677 28.3955 26.2532L20.9221 23.0735V21.2102C21.7133 20.2168 22.2137 19.0337 22.3812 17.7634H23.909C25.3629 17.7634 26.5457 16.5806 26.5457 15.1267V11.3467C26.5457 10.0173 25.5565 8.91524 24.2757 8.73603C24.0857 3.01737 20.8884 0 15 0C9.11156 0 5.91431 3.01737 5.72433 8.73603C4.44351 8.91524 3.45428 10.0173 3.45428 11.3467V15.1267C3.45428 16.5806 4.63715 17.7634 6.091 17.7634H7.61879C7.78633 19.034 8.28667 20.2171 9.07791 21.2102V23.0735L1.60469 26.2532C0.630112 26.6677 0.000457764 27.6198 0 28.6789V29.1209C0 29.3541 0.0924682 29.5777 0.257492 29.7425C0.422287 29.9073 0.645905 30 0.878906 30H29.1211C29.3543 30 29.5779 29.9073 29.7427 29.7425C29.9075 29.5775 30 29.3539 30 29.1209L29.9998 28.6787ZM19.1652 23.6901C19.1659 23.7112 19.2151 25.8444 17.9551 27.1566C17.2632 27.8769 16.2689 28.2419 15 28.2419C13.7357 28.2419 12.7439 27.8794 12.0525 27.1644C10.7774 25.8453 10.8344 23.7087 10.8348 23.6901C10.8355 23.6782 10.8357 23.6666 10.8357 23.6547V22.7844C12.0392 23.5459 13.4747 23.955 15 23.955C16.5253 23.955 17.9608 23.5459 19.1643 22.7844V23.6547C19.1643 23.6666 19.1645 23.6782 19.1652 23.6901ZM20.6863 16.4142L19.0144 17.529C18.4834 17.8831 17.8651 18.0704 17.2266 18.0704H15.74C15.2547 18.0704 14.8611 18.4638 14.8611 18.9493C14.8611 19.4347 15.2547 19.8282 15.74 19.8282H17.2266C18.2133 19.8282 19.1689 19.5389 19.9896 18.9914L20.3261 18.7671C19.533 20.8135 17.5047 22.1971 15 22.1971C11.7583 22.1971 9.31366 19.8797 9.31366 16.8065V9.68109C9.66019 8.07021 10.1621 7.04641 10.7673 6.71819C11.3699 6.39089 12.2456 6.73124 13.0925 7.06014C13.7524 7.31626 14.3756 7.55842 15 7.55842C15.6301 7.55842 16.2458 7.31375 16.8979 7.05488C17.7457 6.71796 18.5465 6.39981 19.1398 6.70926C19.5721 6.93471 20.1885 7.6367 20.6863 9.6923V16.4142ZM24.7879 11.3467V15.1267C24.7879 15.6112 24.3935 16.0056 23.909 16.0056H22.4442V10.4678H23.909C24.3935 10.4678 24.7879 10.8621 24.7879 11.3467ZM9.04907 3.91093C10.2663 2.48224 12.2683 1.75783 15 1.75783C17.7317 1.75783 19.7337 2.48224 20.9509 3.91093C21.9093 5.0359 22.4343 6.64884 22.5156 8.70994H22.2459C21.7152 6.82485 20.9786 5.6857 19.9525 5.15057C18.6454 4.46895 17.3165 4.99676 16.2488 5.42111C15.7791 5.60765 15.2934 5.8006 14.9998 5.8006C14.7047 5.8006 14.2085 5.60788 13.7288 5.42157C12.6233 4.99195 11.2473 4.45751 9.92867 5.173C8.9344 5.71271 8.21457 6.87337 7.73781 8.70994H7.48444C7.56546 6.64884 8.09074 5.0359 9.04907 3.91093ZM5.2121 15.1267V11.3467C5.2121 10.8621 5.60646 10.4678 6.091 10.4678H7.55585V16.0056H6.091C5.60646 16.0056 5.2121 15.6112 5.2121 15.1267ZM2.29271 27.8707L9.17862 24.941C9.33289 25.8947 9.71603 27.1925 10.6554 28.2422H1.87408C1.96724 28.0794 2.11235 27.9474 2.29271 27.8707ZM19.3446 28.2422C20.284 27.1925 20.6671 25.8947 20.8214 24.941L27.7073 27.8707C27.8876 27.9474 28.0325 28.0794 28.1259 28.2422H19.3446Z" fill="white"/>
</svg>
