<svg width="35" height="35" viewBox="0 0 35 35" fill="none" xmlns="http://www.w3.org/2000/svg">
<g clip-path="url(#clip0_98_452)">
<path d="M33.1667 3.91348C33.0385 3.78564 32.8649 3.71387 32.6839 3.71387H29.3316C29.1507 3.71387 28.977 3.78564 28.8489 3.91348L27.2164 5.54193C27.0878 5.67018 27.0156 5.84429 27.0156 6.02592V8.90248C26.4506 8.82667 25.8798 8.76152 25.308 8.70574V7.76081C25.308 6.58817 24.369 5.62034 23.215 5.60346C22.8297 5.59744 22.4576 5.6939 22.1317 5.88018C21.7763 5.26727 21.131 4.85082 20.379 4.82382C19.9259 4.807 19.4904 4.93121 19.1222 5.17758C18.7225 4.64314 18.0854 4.32227 17.4179 4.32227C16.9406 4.32227 16.494 4.48927 16.1346 4.76681C15.7449 4.32124 15.1723 4.03926 14.5352 4.03926C13.5494 4.03926 12.6423 4.83523 12.449 5.79063H12.062C10.7552 5.79063 9.69199 6.85348 9.69199 8.15996V8.70492C9.12324 8.76043 8.55278 8.82646 7.98444 8.90269V6.02592C7.98444 5.84429 7.91219 5.67018 7.7836 5.54193L6.15111 3.91348C6.02294 3.78564 5.84937 3.71387 5.66836 3.71387H2.31608C2.13507 3.71387 1.96144 3.78564 1.83333 3.91348L0.20084 5.54193C0.0722559 5.67024 0 5.84429 0 6.02592V17.0061C0 17.1876 0.0722559 17.3618 0.200771 17.4901L1.83326 19.1185C1.96144 19.2463 2.13507 19.3181 2.31602 19.3181H5.66836C5.84937 19.3181 6.02301 19.2463 6.15111 19.1185L7.7836 17.4901C7.91212 17.3618 7.98444 17.1877 7.98444 17.0061V14.1278C8.46494 14.1923 9.06719 14.2701 9.69404 14.3485C9.71558 15.2034 10.0148 16.0375 10.544 16.7099L12.1719 19.107C12.1817 19.1214 12.192 19.1355 12.203 19.1491C12.5647 19.6028 12.7668 20.1699 12.7735 20.7487L11.866 30.5393C11.8312 30.9152 12.1077 31.2483 12.4837 31.2831C12.5051 31.285 12.5264 31.286 12.5476 31.286C12.8966 31.286 13.1946 31.02 13.2275 30.6654L14.138 20.8415C14.1399 20.8205 14.1409 20.7995 14.1409 20.7784C14.1409 19.8899 13.8385 19.0173 13.289 18.3182L11.661 15.9209C11.6511 15.9064 11.6406 15.8922 11.6296 15.8784C11.3177 15.4877 11.1246 15.0123 11.0731 14.517C11.1627 14.5276 11.2513 14.5382 11.3385 14.5484C12.6187 14.6994 13.7779 13.672 13.7779 12.3784V6.16394C13.7779 5.81004 14.1814 5.40651 14.5353 5.40651C14.9459 5.40651 15.2927 5.75337 15.2927 6.16394V6.44694C15.2927 6.82449 15.5988 7.13054 15.9763 7.13054C16.3539 7.13054 16.6599 6.82449 16.6599 6.44694C16.6599 6.05764 17.0284 5.68952 17.418 5.68952C17.6207 5.68952 17.8108 5.7682 17.9539 5.91176C18.0968 6.05463 18.1755 6.24474 18.1755 6.44694V6.94323C18.1755 7.32044 18.481 7.62635 18.8582 7.62683H18.8591C19.2359 7.62683 19.5417 7.32188 19.5426 6.94494C19.5437 6.52132 19.9062 6.1748 20.3295 6.19012C20.7313 6.20454 21.0582 6.55953 21.0582 6.98151V7.728C21.0582 8.10555 21.3643 8.41159 21.7418 8.41159C22.1192 8.41159 22.4254 8.10555 22.4254 7.728C22.4254 7.31121 22.7778 6.96395 23.1947 6.97051C23.6062 6.97652 23.9409 7.33104 23.9409 7.76081V14.4997C23.9409 16.3013 22.798 17.6951 22.2488 18.3649C22.004 18.6634 21.7906 18.9728 21.6478 19.3339C21.5058 19.6927 21.4307 20.078 21.4307 20.464V30.6023C21.4307 30.9799 21.7368 31.2859 22.1143 31.2859C22.4918 31.2859 22.7979 30.9799 22.7979 30.6023V20.464C22.7979 19.9837 23.0094 19.5933 23.306 19.2318C23.9051 18.5012 25.3081 16.7901 25.3081 14.4996V14.3258C25.8788 14.2701 26.4495 14.2051 27.0156 14.1293V17.0059C27.0156 17.1875 27.0879 17.3617 27.2165 17.4899L28.849 19.1184C28.9771 19.2462 29.1508 19.318 29.3317 19.318H32.684C32.8649 19.318 33.0386 19.2462 33.1667 19.1184L34.7993 17.4899C34.9279 17.3617 35.0001 17.1875 35.0001 17.0059V14.4321C35.0001 14.0546 34.694 13.7485 34.3165 13.7485C33.9391 13.7485 33.633 14.0546 33.633 14.4321V16.7223L32.4013 17.9509H29.6143L28.3827 16.7223V6.30961L29.6143 5.08112H32.4013L33.6328 6.30961V8.41836C33.6328 8.79591 33.9389 9.10195 34.3164 9.10195C34.6939 9.10195 35 8.79591 35 8.41836V6.02592C35 5.84429 34.9277 5.67018 34.7992 5.54193L33.1667 3.91348ZM12.062 7.15788H12.4106V8.4874L11.0592 8.59021V8.16003C11.0592 7.60748 11.5091 7.15788 12.062 7.15788ZM5.38576 17.9509H2.59875L1.36719 16.7225V6.30961L2.59875 5.08112H5.38576L6.61732 6.30961V16.7225L5.38576 17.9509ZM7.98451 10.2824C8.8887 10.1574 12.4105 9.85869 12.4105 9.85869V12.3787C12.4105 12.8625 11.974 13.247 11.4967 13.1903C11.4349 13.1831 8.6677 12.8413 7.98458 12.7482L7.98451 10.2824ZM25.308 12.953V10.0786C25.8804 10.1361 26.4512 10.2042 27.0156 10.2822V12.7498C26.4501 12.8277 25.8792 12.8957 25.308 12.953Z" fill="white"/>
<path d="M34.8846 11.1145C34.6807 10.8026 34.2452 10.72 33.9372 10.9251C33.627 11.1317 33.5422 11.5638 33.7485 11.8733C33.9552 12.1836 34.386 12.2676 34.6959 12.0619C35.0062 11.856 35.0907 11.4234 34.8846 11.1145Z" fill="white"/>
</g>
<defs>
<clipPath id="clip0_98_452">
<rect width="35" height="35" fill="white"/>
</clipPath>
</defs>
</svg>
