<svg width="50" height="26" viewBox="0 0 50 26" fill="none" xmlns="http://www.w3.org/2000/svg">
<path d="M35.0642 1.85967C35.6671 2.13672 36.1535 2.53604 36.6685 2.95869C37.7115 3.81484 38.8935 4.78516 41.1781 4.78516C43.4626 4.78516 44.6447 3.81475 45.6876 2.95869C46.6641 2.15713 47.5075 1.46484 49.2676 1.46484C49.6722 1.46484 50 1.13691 50 0.732423C50 0.32793 49.6722 0 49.2676 0C46.9831 0 45.8011 0.97041 44.7581 1.82646C43.7817 2.62803 42.9383 3.32031 41.1781 3.32031C39.4178 3.32031 38.5744 2.62803 37.598 1.82646C37.0339 1.36338 36.4506 0.884571 35.6759 0.528614C35.3083 0.359766 34.8735 0.520801 34.7046 0.888281C34.5356 1.25596 34.6966 1.69082 35.0642 1.85967Z" fill="#B62025"/>
<path d="M0.732324 1.46494C2.49238 1.46494 3.33564 2.15722 4.31201 2.95878C5.35488 3.81494 6.53682 4.78525 8.82129 4.78525C11.1058 4.78525 12.2877 3.81484 13.3306 2.95878C14.3069 2.15722 15.1503 1.46494 16.9104 1.46494C18.6704 1.46494 19.5137 2.15722 20.49 2.95878C21.5329 3.81494 22.7148 4.78525 24.9992 4.78525C27.2837 4.78525 28.4656 3.81484 29.5086 2.95878C30.4555 2.18144 31.2733 1.51005 32.9208 1.46708C33.3252 1.45654 33.6444 1.12021 33.6339 0.715814C33.6234 0.311419 33.2855 -0.00615841 32.8827 0.00272831C30.7325 0.058783 29.5886 0.997943 28.5792 1.82656C27.6027 2.62812 26.7595 3.3204 24.9993 3.3204C23.2393 3.3204 22.396 2.62812 21.4196 1.82656C20.3768 0.970404 19.1948 9.15527e-05 16.9104 9.15527e-05C14.626 9.15527e-05 13.444 0.970502 12.4012 1.82656C11.4248 2.62812 10.5814 3.3204 8.82139 3.3204C7.06133 3.3204 6.21797 2.62812 5.2416 1.82656C4.19873 0.970404 3.0168 9.15527e-05 0.732422 9.15527e-05C0.327832 9.15527e-05 0 0.328021 0 0.732513C0 1.13701 0.327734 1.46494 0.732324 1.46494Z" fill="#B62025"/>
<path d="M49.2676 7.02295C46.9831 7.02295 45.8011 7.99326 44.7581 8.84941C43.7816 9.65098 42.9383 10.3433 41.178 10.3433C39.4179 10.3433 38.5745 9.65098 37.598 8.84941C36.5551 7.99326 35.373 7.02295 33.0885 7.02295C30.8041 7.02295 29.6221 7.99336 28.5792 8.84941C27.6027 9.65098 26.7595 10.3433 24.9993 10.3433C23.2393 10.3433 22.396 9.65098 21.4196 8.84941C20.3768 7.99326 19.1948 7.02295 16.9104 7.02295C14.626 7.02295 13.444 7.99336 12.4012 8.84941C11.4248 9.65098 10.5814 10.3433 8.82139 10.3433C7.06133 10.3433 6.21797 9.65098 5.2416 8.84941C4.19873 7.99326 3.0168 7.02295 0.732422 7.02295C0.327832 7.02295 0 7.35088 0 7.75537C0 8.15986 0.327832 8.48779 0.732422 8.48779C2.49248 8.48779 3.33574 9.18008 4.31211 9.98164C5.35498 10.8378 6.53691 11.8081 8.82139 11.8081C11.1059 11.8081 12.2878 10.8377 13.3307 9.98164C14.307 9.18008 15.1504 8.48779 16.9104 8.48779C18.6705 8.48779 19.5138 9.18008 20.4901 9.98164C21.533 10.8378 22.7149 11.8081 24.9993 11.8081C27.2838 11.8081 28.4658 10.8377 29.5087 9.98164C30.4852 9.18008 31.3284 8.48779 33.0885 8.48779C34.8487 8.48779 35.6921 9.18008 36.6686 9.98164C37.7115 10.8378 38.8936 11.8081 41.178 11.8081C43.4626 11.8081 44.6446 10.8377 45.6876 9.98164C46.6641 9.18008 47.5074 8.48779 49.2676 8.48779C49.6722 8.48779 50 8.15986 50 7.75537C50 7.35088 49.6722 7.02295 49.2676 7.02295Z" fill="#B62025"/>
<path d="M49.2676 14.0458C46.9831 14.0458 45.8011 15.0161 44.7581 15.8723C43.7816 16.6738 42.9383 17.3661 41.178 17.3661C39.4179 17.3661 38.5745 16.6738 37.598 15.8723C36.5551 15.0161 35.373 14.0458 33.0885 14.0458C30.8041 14.0458 29.6221 15.0162 28.5792 15.8723C27.6027 16.6738 26.7595 17.3661 24.9993 17.3661C23.2393 17.3661 22.396 16.6738 21.4196 15.8723C20.3768 15.0161 19.1948 14.0458 16.9104 14.0458C14.626 14.0458 13.444 15.0162 12.4012 15.8723C11.4248 16.6738 10.5814 17.3661 8.82139 17.3661C7.06133 17.3661 6.21797 16.6738 5.2416 15.8723C4.19873 15.0161 3.0168 14.0458 0.732422 14.0458C0.327832 14.0458 0 14.3737 0 14.7782C0 15.1827 0.327832 15.5107 0.732422 15.5107C2.49248 15.5107 3.33574 16.2029 4.31211 17.0045C5.35498 17.8607 6.53691 18.831 8.82139 18.831C11.1059 18.831 12.2878 17.8606 13.3307 17.0045C14.307 16.2029 15.1504 15.5107 16.9104 15.5107C18.6705 15.5107 19.5138 16.2029 20.4901 17.0045C21.533 17.8607 22.7149 18.831 24.9993 18.831C27.2838 18.831 28.4658 17.8606 29.5087 17.0045C30.4852 16.2029 31.3284 15.5107 33.0885 15.5107C34.8487 15.5107 35.6921 16.2029 36.6686 17.0045C37.7115 17.8607 38.8936 18.831 41.178 18.831C43.4626 18.831 44.6446 17.8606 45.6876 17.0045C46.6641 16.2029 47.5074 15.5107 49.2676 15.5107C49.6722 15.5107 50 15.1827 50 14.7782C50 14.3737 49.6722 14.0458 49.2676 14.0458Z" fill="#B62025"/>
<path d="M49.2676 21.0687C46.9831 21.0687 45.8011 22.0391 44.7581 22.8951C43.7817 23.6967 42.9383 24.389 41.1781 24.389C39.4179 24.389 38.5745 23.6967 37.5981 22.8951C36.5551 22.039 35.3731 21.0687 33.0885 21.0687C30.8041 21.0687 29.6221 22.0391 28.5792 22.8951C27.6028 23.6967 26.7595 24.389 24.9993 24.389C23.2393 24.389 22.396 23.6967 21.4197 22.8951C20.7503 22.3456 20.058 21.7773 19.0602 21.4183C18.6796 21.2814 18.26 21.4789 18.123 21.8596C17.9862 22.2401 18.1836 22.6598 18.5643 22.7967C19.3241 23.07 19.8906 23.5351 20.4903 24.0274C21.5331 24.8835 22.7151 25.8538 24.9994 25.8538C27.2839 25.8538 28.466 24.8834 29.5088 24.0274C30.4852 23.2258 31.3285 22.5335 33.0886 22.5335C34.8489 22.5335 35.6922 23.2258 36.6687 24.0274C37.7117 24.8835 38.8937 25.8538 41.1782 25.8538C43.4627 25.8538 44.6448 24.8834 45.6877 24.0274C46.6642 23.2258 47.5076 22.5335 49.2677 22.5335C49.6723 22.5335 50.0001 22.2056 50.0001 21.8011C50.0001 21.3966 49.6722 21.0687 49.2676 21.0687Z" fill="#B62025"/>
<path d="M16.3329 21.0903C14.4201 21.2377 13.3476 22.1183 12.4011 22.8951C11.4247 23.6967 10.5814 24.389 8.82139 24.389C7.06133 24.389 6.21797 23.6967 5.2416 22.8951C4.19873 22.039 3.0168 21.0687 0.732422 21.0687C0.327832 21.0687 0 21.3966 0 21.8011C0 22.2056 0.327832 22.5335 0.732422 22.5335C2.49248 22.5335 3.33574 23.2258 4.31211 24.0274C5.35498 24.8835 6.53691 25.8538 8.82139 25.8538C11.1058 25.8538 12.2878 24.8834 13.3307 24.0274C14.2226 23.2951 14.9929 22.6627 16.4455 22.5509C16.8488 22.5198 17.1506 22.1677 17.1194 21.7644C17.0883 21.361 16.7377 21.0589 16.3329 21.0903Z" fill="#B62025"/>
</svg>
