<svg width="30" height="30" viewBox="0 0 30 30" fill="none" xmlns="http://www.w3.org/2000/svg">
<path d="M1.08203 7.51599V22.3156H28.9181V7.51599H1.08203ZM15.6738 16.6731C15.5214 16.6731 15.3703 16.6537 15.2245 16.6153L14.1184 16.324V20.5523H2.84528V9.27924H14.1184V13.5076L15.2245 13.2163C15.3703 13.1779 15.5214 13.1584 15.6738 13.1584C15.8252 13.1584 15.9722 13.1777 16.1124 13.2139C16.8698 13.4092 17.4311 14.0982 17.4311 14.9158C17.4311 15.8848 16.6427 16.6731 15.6738 16.6731ZM27.1548 20.5524H15.8817V18.4303C17.7265 18.3223 19.1943 16.7873 19.1943 14.9158C19.1943 13.0444 17.7265 11.5093 15.8817 11.4013V9.27924H27.1548V20.5524Z" fill="white"/>
<path d="M14.1187 0H15.8819V3.81631H14.1187V0Z" fill="white"/>
<path d="M6.78125 2.6189L8.30822 1.73727L10.2164 5.0422L8.68941 5.92382L6.78125 2.6189Z" fill="white"/>
<path d="M7.36426 27.718L9.27241 24.4131L10.7994 25.2947L8.89123 28.5996L7.36426 27.718Z" fill="white"/>
<path d="M14.792 26.1837H16.5552V30H14.792V26.1837Z" fill="white"/>
<path d="M20.4565 24.9572L21.9835 24.0755L23.8917 27.3805L22.3647 28.2621L20.4565 24.9572Z" fill="white"/>
<path d="M19.8735 4.70581L21.7817 1.40088L23.3087 2.28251L21.4005 5.58743L19.8735 4.70581Z" fill="white"/>
</svg>
