<svg width="50" height="50" viewBox="0 0 50 50" fill="none" xmlns="http://www.w3.org/2000/svg">
<path d="M33.1073 39.6903L28.6001 38.1881C29.8252 37.4065 30.7638 36.2486 31.275 34.8882C31.7862 33.5278 31.8425 32.0384 31.4354 30.6433C31.0282 29.2482 30.1797 28.0228 29.017 27.151C27.8543 26.2791 26.4402 25.8078 24.987 25.8078C23.5337 25.8078 22.1197 26.2791 20.957 27.151C19.7943 28.0228 18.9458 29.2482 18.5386 30.6433C18.1315 32.0384 18.1877 33.5278 18.699 34.8882C19.2102 36.2486 20.1488 37.4065 21.3739 38.1881L16.8667 39.6903C15.7143 40.0733 14.712 40.8097 14.002 41.7949C13.292 42.78 12.9105 43.9639 12.9116 45.1782V47.7095C12.9122 48.3168 13.1537 48.8991 13.5831 49.3285C14.0126 49.758 14.5949 49.9995 15.2022 50H34.7718C35.3792 49.9995 35.9616 49.758 36.3912 49.3286C36.8208 48.8992 37.0625 48.3169 37.0632 47.7095V45.1782C37.0643 43.9638 36.6826 42.7799 35.9724 41.7947C35.2623 40.8096 34.2598 40.0732 33.1073 39.6903ZM20.0553 32.5344C20.0553 31.559 20.3446 30.6055 20.8865 29.7945C21.4284 28.9835 22.1986 28.3514 23.0997 27.9781C24.0008 27.6049 24.9924 27.5072 25.9491 27.6975C26.9057 27.8878 27.7845 28.3575 28.4742 29.0472C29.1639 29.7369 29.6336 30.6156 29.8239 31.5722C30.0141 32.5289 29.9165 33.5205 29.5432 34.4216C29.17 35.3228 28.5379 36.093 27.7268 36.6349C26.9158 37.1768 25.9624 37.466 24.987 37.466C23.6794 37.4646 22.4259 36.9446 21.5013 36.02C20.5768 35.0955 20.0567 33.8419 20.0553 32.5344ZM35.2775 47.7095C35.2772 47.8434 35.2238 47.9718 35.129 48.0664C35.0342 48.1611 34.9057 48.2143 34.7718 48.2143H15.2021C15.0683 48.2141 14.94 48.1608 14.8454 48.0662C14.7508 47.9716 14.6975 47.8433 14.6973 47.7095V45.1782C14.6966 44.3386 14.9604 43.5201 15.4512 42.839C15.942 42.1578 16.635 41.6486 17.4317 41.3836L22.7295 39.6179C24.1954 39.1331 25.7785 39.1331 27.2444 39.6179L32.5422 41.3836C33.339 41.6485 34.0321 42.1577 34.5231 42.8389C35.014 43.5201 35.278 44.3386 35.2775 45.1782L35.2775 47.7095Z" fill="#83BE41"/>
<path d="M46.6833 39.1793L43.3747 38.0787C44.3272 37.3827 45.0352 36.4033 45.3974 35.2807C45.7597 34.158 45.7577 32.9495 45.3916 31.828C45.0256 30.7066 44.3143 29.7296 43.3595 29.0368C42.4047 28.3439 41.2553 27.9708 40.0756 27.9707C38.8959 27.9706 37.7464 28.3435 36.7914 29.0361C35.8365 29.7287 35.125 30.7056 34.7588 31.827C34.3925 32.9484 34.3903 34.1568 34.7523 35.2796C35.1143 36.4024 35.8221 37.3819 36.7745 38.0781C36.6596 38.1087 36.5519 38.162 36.4579 38.2347C36.3638 38.3075 36.2852 38.3983 36.2267 38.5018C36.1682 38.6053 36.131 38.7195 36.1172 38.8376C36.1033 38.9557 36.1132 39.0754 36.1463 39.1896C36.1793 39.3038 36.2349 39.4103 36.3096 39.5028C36.3843 39.5953 36.4768 39.672 36.5815 39.7282C36.6863 39.7845 36.8012 39.8194 36.9196 39.8307C37.038 39.842 37.1574 39.8295 37.2709 39.7941C38.1536 39.4292 39.0917 39.2162 40.0454 39.1639C41.3272 39.0596 44.8638 40.5242 46.1166 40.8726C46.7272 41.0774 47.2582 41.4687 47.6345 41.9914C48.0109 42.514 48.2138 43.1416 48.2144 43.7857V45.8217C48.214 45.8839 48.1897 45.9436 48.1465 45.9884C48.1034 46.0331 48.0446 46.0596 47.9825 46.0623H39.741C39.5042 46.0623 39.2771 46.1564 39.1096 46.3238C38.9422 46.4913 38.8481 46.7184 38.8481 46.9552C38.8481 47.192 38.9422 47.4191 39.1096 47.5865C39.2771 47.754 39.5042 47.848 39.741 47.848H47.9825C48.5185 47.8462 49.032 47.6319 49.4102 47.252C49.7885 46.8721 50.0006 46.3578 50.0001 45.8217V43.7857C49.9996 42.7672 49.6791 41.7746 49.084 40.9481C48.4888 40.1215 47.6491 39.5028 46.6833 39.1793ZM40.0813 37.379C39.0759 37.3716 38.1141 36.9672 37.4055 36.254C36.6969 35.5407 36.2988 34.5763 36.2979 33.5709C36.2971 32.5654 36.6936 31.6004 37.401 30.8859C38.1084 30.1715 39.0695 29.7655 40.0749 29.7564C41.0804 29.7638 42.0421 30.1682 42.7508 30.8814C43.4594 31.5947 43.8575 32.5591 43.8583 33.5645C43.8592 34.57 43.4627 35.535 42.7552 36.2495C42.0478 36.964 41.0867 37.3699 40.0813 37.379Z" fill="#83BE41"/>
<path d="M3.88009 40.8744C5.12741 40.5342 8.61898 39.0763 9.89391 39.1638C10.8623 39.2079 11.8158 39.4185 12.7128 39.7862C12.9363 39.8546 13.1777 39.8326 13.3852 39.7249C13.5927 39.6173 13.7497 39.4326 13.8225 39.2104C13.8953 38.9883 13.8782 38.7465 13.7747 38.5369C13.6712 38.3273 13.4896 38.1666 13.269 38.0894C14.2203 37.3912 14.9269 36.4104 15.2879 35.2869C15.6489 34.1635 15.6459 32.9547 15.2795 31.833C14.913 30.7113 14.2016 29.734 13.2469 29.0404C12.2922 28.3468 11.1429 27.9724 9.96285 27.9705C8.7828 27.9687 7.6323 28.3395 6.67543 29.0301C5.71855 29.7207 5.00417 30.6958 4.63416 31.8163C4.26416 32.9368 4.25742 34.1456 4.61492 35.2702C4.97241 36.3948 5.67588 37.3778 6.625 38.079L3.3133 39.1811C2.34828 39.5047 1.50929 40.1234 0.914782 40.9496C0.320278 41.7758 0.000292999 42.7678 8.39213e-07 43.7857V45.8217C-0.00048691 46.3577 0.211653 46.8721 0.589891 47.252C0.96813 47.6318 1.48159 47.8462 2.01765 47.848H10.2321C10.466 47.8436 10.6888 47.7475 10.8526 47.5806C11.0164 47.4136 11.1082 47.189 11.1082 46.9551C11.1082 46.7212 11.0164 46.4967 10.8526 46.3297C10.6888 46.1627 10.466 46.0667 10.2321 46.0623H2.01765C1.95551 46.0596 1.89677 46.0331 1.8536 45.9883C1.81043 45.9436 1.78612 45.8839 1.78572 45.8217V43.7857C1.78613 43.1423 1.98847 42.5152 2.36422 41.9929C2.73997 41.4705 3.27018 41.0793 3.88009 40.8744ZM9.92431 29.7564C10.9289 29.7652 11.8893 30.1702 12.5968 30.8834C13.3043 31.5966 13.7017 32.5602 13.7024 33.5648C13.7032 34.5694 13.3073 35.5337 12.6009 36.2479C11.8945 36.9622 10.9347 37.3687 9.93015 37.3791C8.92561 37.3703 7.96515 36.9652 7.25764 36.252C6.55014 35.5389 6.1528 34.5752 6.15203 33.5706C6.15126 32.566 6.54712 31.6017 7.25354 30.8875C7.95995 30.1732 8.91978 29.7667 9.92431 29.7564Z" fill="#83BE41"/>
<path d="M25 24.1071C30.3265 22.7074 35.7447 19.2924 35.7553 13.3623L35.6559 4.37622C35.6538 4.19383 35.596 4.01642 35.4902 3.86786C35.3843 3.71931 35.2355 3.60673 35.0638 3.54527L25.3008 0.0523104C25.1063 -0.0174368 24.8937 -0.0174368 24.6992 0.0523104L14.9362 3.54527C14.7644 3.60673 14.6156 3.71931 14.5098 3.86786C14.4039 4.01642 14.3461 4.19383 14.3441 4.37622L14.2446 13.372C14.2558 19.2897 19.6796 22.7124 25 24.1071ZM16.1229 5.01709L25 1.84152L33.8771 5.01709L33.9696 13.372C33.9331 18.332 29.3602 20.9035 25 22.2857C22.4649 21.5881 20.1331 20.2949 18.1989 18.5137C17.5085 17.8499 16.9603 17.0526 16.5875 16.1704C16.2148 15.2882 16.0252 14.3393 16.0304 13.3816L16.1229 5.01709Z" fill="#83BE41"/>
<path d="M23.1653 13.7268C23.2482 13.8097 23.3466 13.8755 23.4549 13.9204C23.5632 13.9653 23.6793 13.9884 23.7966 13.9884C23.9138 13.9884 24.0299 13.9653 24.1382 13.9204C24.2466 13.8755 24.345 13.8097 24.4279 13.7268L29.1895 8.96428C29.3551 8.79649 29.4477 8.56998 29.447 8.33418C29.4462 8.09838 29.3522 7.87245 29.1855 7.70571C29.0187 7.53898 28.7928 7.44499 28.557 7.44425C28.3212 7.44351 28.0947 7.53609 27.9269 7.70178L23.7966 11.833L22.0466 10.083C21.8787 9.91745 21.6523 9.82501 21.4165 9.82582C21.1808 9.82663 20.955 9.92063 20.7883 10.0873C20.6217 10.254 20.5277 10.4798 20.5269 10.7155C20.5261 10.9513 20.6185 11.1777 20.7841 11.3455L23.1653 13.7268Z" fill="#83BE41"/>
</svg>
