<svg width="32" height="20" viewBox="0 0 32 20" fill="none" xmlns="http://www.w3.org/2000/svg">
<path d="M16.6667 2.22222H1.11111C0.816426 2.22222 0.533811 2.10516 0.325437 1.89679C0.117063 1.68841 0 1.4058 0 1.11111C0 0.816426 0.117063 0.533811 0.325437 0.325437C0.533811 0.117063 0.816426 0 1.11111 0H16.6667C16.9614 0 17.244 0.117063 17.4523 0.325437C17.6607 0.533811 17.7778 0.816426 17.7778 1.11111C17.7778 1.4058 17.6607 1.68841 17.4523 1.89679C17.244 2.10516 16.9614 2.22222 16.6667 2.22222ZM17.7778 6.66667C17.7778 6.37198 17.6607 6.08937 17.4523 5.88099C17.244 5.67262 16.9614 5.55556 16.6667 5.55556H1.11111C0.816426 5.55556 0.533811 5.67262 0.325437 5.88099C0.117063 6.08937 0 6.37198 0 6.66667C0 6.96135 0.117063 7.24397 0.325437 7.45234C0.533811 7.66071 0.816426 7.77778 1.11111 7.77778H16.6667C16.9614 7.77778 17.244 7.66071 17.4523 7.45234C17.6607 7.24397 17.7778 6.96135 17.7778 6.66667ZM10 12.2222C10 11.9275 9.88294 11.6449 9.67456 11.4365C9.46619 11.2282 9.18357 11.1111 8.88889 11.1111H1.11111C0.816426 11.1111 0.533811 11.2282 0.325437 11.4365C0.117063 11.6449 0 11.9275 0 12.2222C0 12.5169 0.117063 12.7995 0.325437 13.0079C0.533811 13.2163 0.816426 13.3333 1.11111 13.3333H8.88889C9.18357 13.3333 9.46619 13.2163 9.67456 13.0079C9.88294 12.7995 10 12.5169 10 12.2222ZM20 20C20.1641 19.9989 20.326 19.9615 20.4739 19.8904C20.6218 19.8193 20.7522 19.7163 20.8556 19.5889L30.8556 7.36667C30.9656 7.25696 31.0514 7.1254 31.1074 6.98048C31.1634 6.83555 31.1885 6.68049 31.1808 6.5253C31.1732 6.37011 31.1331 6.21824 31.0632 6.07951C30.9932 5.94077 30.8949 5.81825 30.7747 5.71986C30.6544 5.62147 30.5148 5.5494 30.365 5.50829C30.2152 5.46719 30.0584 5.45797 29.9047 5.48122C29.7511 5.50448 29.6041 5.5597 29.4731 5.64332C29.3422 5.72693 29.2302 5.83709 29.1444 5.96667L20 17.1444L15.3111 11.5111C15.2177 11.3988 15.1031 11.3059 14.9739 11.2378C14.8446 11.1698 14.7032 11.1278 14.5577 11.1144C14.2639 11.0873 13.9714 11.1781 13.7444 11.3667C13.5175 11.5553 13.3748 11.8263 13.3478 12.1201C13.3207 12.4139 13.4114 12.7064 13.6 12.9333L19.1556 19.6C19.2588 19.724 19.3879 19.824 19.5337 19.8931C19.6795 19.9622 19.8386 19.9986 20 20Z" fill="white"/>
</svg>
