<svg width="50" height="50" viewBox="0 0 50 50" fill="none" xmlns="http://www.w3.org/2000/svg">
<g clip-path="url(#clip0_90_316)">
<path d="M0.75 30.86C1.16 30.86 1.5 30.52 1.5 30.11V19.89C1.5 19.48 1.16 19.14 0.75 19.14C0.340002 19.14 0 19.48 0 19.89V30.11C0 30.52 0.340002 30.86 0.75 30.86Z" fill="#83BE41"/>
<path d="M4.04004 20.72V29.28C4.04004 29.7 4.38004 30.03 4.79004 30.03C5.21003 30.03 5.54004 29.7 5.54004 29.28V20.72C5.54004 20.3 5.21003 19.97 4.79004 19.97C4.38004 19.97 4.04004 20.3 4.04004 20.72Z" fill="#83BE41"/>
<path d="M28.29 22.51V27.49C28.29 27.9 28.63 28.24 29.04 28.24C29.46 28.24 29.79 27.9 29.79 27.49V22.51C29.79 22.1 29.46 21.76 29.04 21.76C28.63 21.76 28.29 22.1 28.29 22.51Z" fill="#83BE41"/>
<path d="M32.3301 22.3V27.7C32.3301 28.11 32.6701 28.45 33.0801 28.45C33.5001 28.45 33.8301 28.11 33.8301 27.7V22.3C33.8301 21.89 33.5001 21.55 33.0801 21.55C32.6701 21.55 32.3301 21.89 32.3301 22.3Z" fill="#83BE41"/>
<path d="M36.3701 21.95V28.05C36.3701 28.47 36.7101 28.8 37.1201 28.8C37.5401 28.8 37.8801 28.47 37.8801 28.05V21.95C37.8801 21.53 37.5401 21.2 37.1201 21.2C36.7101 21.2 36.3701 21.53 36.3701 21.95Z" fill="#83BE41"/>
<path d="M40.4199 21.43V28.57C40.4199 28.98 40.7499 29.32 41.1699 29.32C41.5799 29.32 41.9199 28.98 41.9199 28.57V21.43C41.9199 21.02 41.5799 20.68 41.1699 20.68C40.7499 20.68 40.4199 21.02 40.4199 21.43Z" fill="#83BE41"/>
<path d="M44.46 20.72V29.28C44.46 29.7 44.79 30.03 45.21 30.03C45.62 30.03 45.96 29.7 45.96 29.28V20.72C45.96 20.3 45.62 19.97 45.21 19.97C44.79 19.97 44.46 20.3 44.46 20.72Z" fill="#83BE41"/>
<path d="M49.25 19.14C48.84 19.14 48.5 19.48 48.5 19.89V30.11C48.5 30.52 48.84 30.86 49.25 30.86C49.66 30.86 50 30.52 50 30.11V19.89C50 19.48 49.66 19.14 49.25 19.14Z" fill="#83BE41"/>
<path d="M24.25 22.58V27.42C24.25 27.83 24.59 28.17 25 28.17C25.41 28.17 25.75 27.83 25.75 27.42V22.58C25.75 22.17 25.41 21.83 25 21.83C24.59 21.83 24.25 22.17 24.25 22.58Z" fill="#83BE41"/>
<path d="M20.21 22.51V27.49C20.21 27.9 20.54 28.24 20.96 28.24C21.37 28.24 21.71 27.9 21.71 27.49V22.51C21.71 22.1 21.37 21.76 20.96 21.76C20.54 21.76 20.21 22.1 20.21 22.51Z" fill="#83BE41"/>
<path d="M16.1699 22.3V27.7C16.1699 28.11 16.4999 28.45 16.9199 28.45C17.3299 28.45 17.6699 28.11 17.6699 27.7V22.3C17.6699 21.89 17.3299 21.55 16.9199 21.55C16.4999 21.55 16.1699 21.89 16.1699 22.3Z" fill="#83BE41"/>
<path d="M12.1299 21.95V28.05C12.1299 28.47 12.4599 28.8 12.8799 28.8C13.2899 28.8 13.6299 28.47 13.6299 28.05V21.95C13.6299 21.53 13.2899 21.2 12.8799 21.2C12.4599 21.2 12.1299 21.53 12.1299 21.95Z" fill="#83BE41"/>
<path d="M8.08008 21.43V28.57C8.08008 28.98 8.42008 29.32 8.83008 29.32C9.25008 29.32 9.58008 28.98 9.58008 28.57V21.43C9.58008 21.02 9.25008 20.68 8.83008 20.68C8.42008 20.68 8.08008 21.02 8.08008 21.43Z" fill="#83BE41"/>
<path d="M24.35 17.34C24.41 17.45 24.5 17.55 24.62 17.61C24.98 17.82 25.44 17.7 25.64 17.35L31.14 8.02C31.23 7.9 31.28 7.75 31.28 7.59C31.28 7.17 30.94 6.84 30.53 6.84H28.31V0.75C28.31 0.340002 27.97 0 27.56 0C27.14 0 26.81 0.340002 26.81 0.75V7.59C26.81 8 27.14 8.34 27.56 8.34H29.22L25 15.5L20.78 8.34H22.44C22.86 8.34 23.19 8 23.19 7.59V0.75C23.19 0.340002 22.86 0 22.44 0C22.03 0 21.69 0.340002 21.69 0.75V6.84H19.47C19.34 6.84 19.21 6.87 19.09 6.94C18.74 7.15 18.62 7.61 18.83 7.97L24.35 17.34Z" fill="#83BE41"/>
<path d="M0.539951 17.69C7.35995 19.64 16.1799 20.62 24.9999 20.62C33.8199 20.62 42.64 19.64 49.46 17.69C49.8499 17.58 50.0799 17.16 49.97 16.77C49.86 16.37 49.44 16.14 49.0499 16.25C42.3699 18.16 33.69 19.12 24.9999 19.12C16.3099 19.12 7.62995 18.16 0.949948 16.25C0.559946 16.14 0.139951 16.37 0.0299472 16.77C-0.0800504 17.16 0.149948 17.58 0.539951 17.69Z" fill="#83BE41"/>
<path d="M49.46 32.31C42.64 30.36 33.8199 29.38 24.9999 29.38C16.1799 29.38 7.35995 30.36 0.539951 32.31C0.149948 32.42 -0.0800504 32.84 0.0299472 33.23C0.139951 33.63 0.559946 33.86 0.949948 33.75C7.62995 31.84 16.3099 30.88 24.9999 30.88C33.69 30.88 42.3699 31.84 49.0499 33.75C49.44 33.86 49.86 33.63 49.97 33.23C50.0799 32.84 49.8499 32.42 49.46 32.31Z" fill="#83BE41"/>
<path d="M25.64 32.65C25.44 32.3 24.98 32.18 24.62 32.39C24.5 32.45 24.41 32.55 24.35 32.66L18.83 42.03C18.62 42.39 18.74 42.85 19.09 43.06C19.21 43.13 19.34 43.16 19.47 43.16H21.69V49.25C21.69 49.66 22.03 50 22.44 50C22.86 50 23.19 49.66 23.19 49.25V42.41C23.19 42 22.86 41.66 22.44 41.66H20.78L25 34.5L29.22 41.66H27.56C27.14 41.66 26.81 42 26.81 42.41V49.25C26.81 49.66 27.14 50 27.56 50C27.97 50 28.31 49.66 28.31 49.25V43.16H30.53C30.94 43.16 31.28 42.83 31.28 42.41C31.28 42.25 31.23 42.1 31.14 41.98L25.64 32.65Z" fill="#83BE41"/>
</g>
<defs>
<clipPath id="clip0_90_316">
<rect width="50" height="50" fill="white"/>
</clipPath>
</defs>
</svg>
