<svg width="50" height="50" viewBox="0 0 50 50" fill="none" xmlns="http://www.w3.org/2000/svg">
<path d="M49.7139 16.3016L44.3967 10.9844C44.1576 10.7453 43.8119 10.647 43.4829 10.7242C43.1538 10.8014 42.8881 11.0434 42.7804 11.3638C42.619 11.844 42.3543 12.2706 41.9933 12.6314C40.7182 13.9066 38.6435 13.9065 37.3685 12.6314C36.7509 12.0137 36.4106 11.1926 36.4106 10.319C36.4106 9.44548 36.7508 8.62429 37.3685 8.00662C37.7295 7.64568 38.1559 7.38083 38.636 7.21951C38.9564 7.11179 39.1984 6.84617 39.2758 6.51707C39.353 6.18796 39.2547 5.84226 39.0156 5.6033L33.6983 0.286011C33.317 -0.0953369 32.6986 -0.0953369 32.3172 0.286011L27.9472 4.65593C27.7735 4.40818 27.577 4.17458 27.3587 3.95623C25.3221 1.9197 22.0083 1.9197 19.9718 3.95623C17.9352 5.99275 17.9352 9.30662 19.9718 11.3431C20.1901 11.5615 20.4237 11.758 20.6716 11.9317L10.9844 21.6189C10.7453 21.858 10.6469 22.2036 10.7242 22.5327C10.8015 22.8618 11.0434 23.1275 11.3638 23.2351C11.844 23.3964 12.2705 23.6612 12.6314 24.0221C13.9065 25.2972 13.9065 27.3719 12.6314 28.6469C12.0137 29.2646 11.1926 29.6049 10.319 29.6049C9.44548 29.6049 8.62429 29.2647 8.00662 28.6469C7.64578 28.2861 7.38093 27.8595 7.21951 27.3794C7.11179 27.059 6.84607 26.817 6.51707 26.7397C6.18796 26.6627 5.84236 26.7608 5.6033 26.9999L0.286011 32.3173C-0.0953369 32.6986 -0.0953369 33.317 0.286011 33.6984L16.3016 49.714C16.4847 49.8971 16.7332 50.0001 16.9922 50.0001C17.2511 50.0001 17.4996 49.8971 17.6827 49.714L23 44.3968C23.239 44.1577 23.3374 43.8121 23.2601 43.483C23.1828 43.1539 22.9409 42.8882 22.6205 42.7805C22.1403 42.6192 21.7138 42.3545 21.3529 41.9934C20.7352 41.3758 20.3951 40.5546 20.3951 39.681C20.3951 38.8076 20.7352 37.9863 21.3529 37.3687C22.628 36.0936 24.7026 36.0936 25.9776 37.3687C26.3386 37.7297 26.6034 38.1561 26.7647 38.6362C26.8724 38.9566 27.1381 39.1986 27.4672 39.276C27.7963 39.353 28.1419 39.2549 28.3809 39.0158L38.5983 28.7984C38.9797 28.4171 38.9797 27.7987 38.5983 27.4173C38.217 27.0358 37.5986 27.0359 37.2172 27.4173L33.0078 31.6266L29.3284 27.9472C29.5762 27.7735 29.8097 27.577 30.0281 27.3588C31.0146 26.3721 31.558 25.0604 31.558 23.6653C31.558 22.2701 31.0146 20.9584 30.0281 19.9719C27.9916 17.9353 24.6778 17.9353 22.6412 19.9719C22.4228 20.1902 22.2263 20.4238 22.0526 20.6717L18.3732 16.9922L23 12.3654C23.2389 12.1263 23.3374 11.7807 23.2601 11.4516C23.1829 11.1225 22.9409 10.8568 22.6205 10.7492C22.1403 10.5878 21.7137 10.323 21.3529 9.96199C20.0778 8.68699 20.0778 6.61228 21.3529 5.33728C22.6281 4.06228 24.7027 4.06228 25.9777 5.33728C26.3387 5.69822 26.6035 6.12468 26.7648 6.60476C26.8724 6.92527 27.1382 7.16726 27.4673 7.24451C27.7964 7.32165 28.142 7.22341 28.381 6.98435L33.0078 2.35759L36.6872 6.03699C36.4394 6.21072 36.2059 6.4072 35.9875 6.62556C35.0009 7.61218 34.4575 8.9238 34.4575 10.319C34.4575 11.7142 35.0009 13.026 35.9874 14.0125C37.0058 15.0308 38.3431 15.54 39.6808 15.5399C41.0182 15.5398 42.3561 15.0306 43.3743 14.0125C43.5927 13.7941 43.7891 13.5605 43.9629 13.3127L47.6424 16.9922L43.4322 21.2023C43.0509 21.5837 43.0509 22.202 43.4322 22.5835C43.6229 22.7742 43.8728 22.8695 44.1227 22.8695C44.3726 22.8695 44.6226 22.7742 44.8133 22.5835L49.7139 17.6828C50.0953 17.3013 50.0953 16.683 49.7139 16.3016ZM22.5327 23.2601C22.8618 23.1828 23.1275 22.9409 23.2351 22.6205C23.3965 22.1403 23.6612 21.7138 24.0222 21.3529C25.2972 20.0778 27.372 20.0778 28.647 21.3529C29.2646 21.9706 29.6048 22.7918 29.6048 23.6653C29.6048 24.5387 29.2646 25.36 28.6469 25.9777C28.2859 26.3386 27.8594 26.6035 27.3794 26.7648C27.059 26.8725 26.817 27.1382 26.7396 27.4673C26.6624 27.7964 26.7607 28.1421 26.9998 28.381L31.6267 33.0078L27.9473 36.6872C27.7736 36.4394 27.5771 36.2058 27.3589 35.9875C25.3222 33.951 22.0086 33.951 19.9719 35.9875C17.9353 38.024 17.9353 41.3379 19.9719 43.3744C20.1903 43.5927 20.4238 43.7892 20.6717 43.963L16.9922 47.6424L2.35759 33.0078L6.03699 29.3284C6.21082 29.5762 6.4072 29.8097 6.62556 30.0281C7.61218 31.0147 8.9238 31.5581 10.319 31.5581C11.7142 31.5581 13.026 31.0147 14.0125 30.0282C16.049 27.9917 16.049 24.6778 14.0125 22.6412C13.7941 22.4228 13.5605 22.2264 13.3128 22.0527L16.9922 18.3732L21.6189 23C21.858 23.239 22.2035 23.3374 22.5327 23.2601Z" fill="#83BE41"/>
<path d="M40.2921 24.3434C39.9293 24.7424 39.9587 25.3601 40.3578 25.7229C40.5449 25.893 40.7799 25.9769 41.0144 25.9769C41.2799 25.9769 41.5446 25.8692 41.7373 25.6572L41.7378 25.6568C42.1005 25.2577 42.0709 24.6404 41.6718 24.2776C41.2728 23.9146 40.6549 23.9443 40.2921 24.3434Z" fill="#83BE41"/>
</svg>
