<svg width="30" height="30" viewBox="0 0 30 30" fill="none" xmlns="http://www.w3.org/2000/svg">
<path d="M17.0039 7.95393L16.8778 7.43427C16.937 7.4242 22.7951 6.39072 22.7951 0.530262C22.7951 0.237557 23.0828 0 23.4386 0C23.7944 0 24.0821 0.237557 24.0821 0.530262C24.0821 6.3642 29.7581 7.39291 30 7.43427L29.8732 7.95393L29.9994 8.47359C29.9402 8.48366 24.0821 9.51714 24.0821 15.3776C24.0821 15.6703 23.7944 15.9079 23.4386 15.9079C23.0828 15.9079 22.7951 15.6703 22.7951 15.3776C22.7951 9.54365 17.1191 8.51495 16.8772 8.47412L17.0039 7.95393ZM20.6241 8.86598C21.6266 9.52722 22.752 10.566 23.4386 12.1324C24.472 9.78333 26.5375 8.56108 28.0246 7.95976C27.4776 7.74182 26.8618 7.44382 26.2531 7.04188C25.2506 6.38064 24.1252 5.34239 23.4386 3.77546C22.4052 6.12453 20.3397 7.34678 18.8526 7.94863C19.3996 8.16656 20.0154 8.46457 20.6241 8.86598Z" fill="#B62025"/>
<path d="M1.88292 16.4381L1.75597 15.9185C1.81556 15.9084 7.71236 14.8749 7.71236 9.01445C7.71236 8.72175 8.00189 8.48419 8.36008 8.48419C8.71827 8.48419 9.0078 8.72175 9.0078 9.01445C9.0078 14.8484 14.7213 15.8771 14.9648 15.9185L14.8372 16.4381L14.9642 16.9578C14.9046 16.9679 9.0078 18.0013 9.0078 23.8618C9.0078 24.1545 8.71827 24.392 8.36008 24.392C8.00189 24.392 7.71236 24.1545 7.71236 23.8618C7.71236 18.0278 1.99886 16.9991 1.75532 16.9583L1.88292 16.4381ZM5.52697 17.3502C6.53611 18.0114 7.66897 19.0502 8.36008 20.6166C9.40031 18.2675 11.4795 17.0453 12.9764 16.444C12.4258 16.226 11.8059 15.928 11.1932 15.5261C10.184 14.8648 9.05119 13.8266 8.36008 12.2597C7.31985 14.6087 5.24068 15.831 3.74381 16.4328C4.29437 16.6508 4.91423 16.9488 5.52697 17.3502Z" fill="#B62025"/>
<path d="M16.3159 22.7634L16.2562 22.5283C16.2842 22.5238 19.0574 22.0563 19.0574 19.4051C19.0574 19.2727 19.1936 19.1652 19.3621 19.1652C19.5305 19.1652 19.6667 19.2727 19.6667 19.4051C19.6667 22.0443 22.3537 22.5096 22.4683 22.5283L22.4083 22.7634L22.468 22.9985C22.4399 23.0031 19.6667 23.4706 19.6667 26.1217C19.6667 26.2542 19.5305 26.3616 19.3621 26.3616C19.1936 26.3616 19.0574 26.2542 19.0574 26.1217C19.0574 23.4826 16.3704 23.0172 16.2559 22.9987L16.3159 22.7634ZM18.0297 23.176C18.5043 23.4752 19.037 23.9451 19.3621 24.6537C19.8513 23.591 20.8291 23.0381 21.5331 22.7661C21.2742 22.6675 20.9826 22.5327 20.6945 22.3508C20.2199 22.0517 19.6871 21.582 19.3621 20.8732C18.8728 21.9358 17.895 22.4888 17.191 22.761C17.45 22.8596 17.7415 22.9944 18.0297 23.176Z" fill="#B62025"/>
</svg>
