<svg width="28" height="28" viewBox="0 0 28 28" fill="none" xmlns="http://www.w3.org/2000/svg">
<path d="M26.25 20.9286C26.25 19.9626 25.8732 19.0543 25.1904 18.3712L21.8793 15.0596C21.1957 14.376 20.2874 14 19.3209 14C18.3545 14 17.4462 14.3764 16.7634 15.0596L16.5302 15.2928L15.4937 14.2563C15.1519 13.9146 14.5981 13.9146 14.2563 14.2563C13.9146 14.5981 13.9146 15.1519 14.2563 15.4937L24.7563 25.9937C24.9272 26.1646 25.1511 26.25 25.375 26.25C25.5989 26.25 25.8228 26.1646 25.9937 25.9937C26.3354 25.6519 26.3354 25.0981 25.9937 24.7563L24.9572 23.7198L25.1904 23.4866C25.8732 22.8034 26.25 21.8951 26.25 20.9286ZM17.7675 16.5302L18.0007 16.2969C18.7065 15.5911 19.9362 15.5919 20.642 16.2969L23.9531 19.6085C24.6812 20.3365 24.6812 21.5212 23.9531 22.2493L23.7198 22.4825L17.7675 16.5302Z" fill="#B62025"/>
<path d="M25.375 1.75H2.625C2.14136 1.75 1.75 2.14178 1.75 2.625V25.375C1.75 25.8582 2.14136 26.25 2.625 26.25H21.875C22.3586 26.25 22.75 25.8582 22.75 25.375C22.75 24.8918 22.3586 24.5 21.875 24.5H14.875V17.5C14.875 17.0168 14.4836 16.625 14 16.625C13.5164 16.625 13.125 17.0168 13.125 17.5V24.5H3.5V14.875H12.25C12.7336 14.875 13.125 14.4832 13.125 14C13.125 13.5168 12.7336 13.125 12.25 13.125H3.5V3.5H13.125V12.25C13.125 12.7332 13.5164 13.125 14 13.125C14.4836 13.125 14.875 12.7332 14.875 12.25V3.5H24.5V13.125H22.75C22.2664 13.125 21.875 13.5168 21.875 14C21.875 14.4832 22.2664 14.875 22.75 14.875H24.5V16.625C24.5 17.1082 24.8914 17.5 25.375 17.5C25.8586 17.5 26.25 17.1082 26.25 16.625V2.625C26.25 2.14178 25.8586 1.75 25.375 1.75Z" fill="#B62025"/>
</svg>
