<svg width="22" height="22" viewBox="0 0 22 22" fill="none" xmlns="http://www.w3.org/2000/svg">
<g clip-path="url(#clip0_144_114)">
<path d="M21.3334 9.66664H20.0001H19.1112C18.7779 9.66664 18.4446 9.99997 18.4446 10.3333C18.4446 10.6666 18.7779 11 19.1112 11H19.7779L14.0001 16.6666L7.11122 9.77775C6.889 9.55553 6.44455 9.55553 6.22233 9.77775C6.00011 9.99997 6.00011 10.4444 6.22233 10.6666L13.1112 17.5555C13.6668 18.1111 14.4446 18.1111 15.0001 17.5555L20.6668 11.8889V12.5555C20.6668 12.8889 21.0001 13.2222 21.3334 13.2222C21.6668 13.2222 22.0001 12.8889 22.0001 12.5555V10.3333C22.0001 9.88886 21.6668 9.66664 21.3334 9.66664Z" fill="#072B3D"/>
<path d="M20.6667 20V19.3333L19.4444 19.4444L19.3333 19.3333V19.4444L0 20.6666V21.6666C0 21.8889 0.111111 22 0.333333 22H20.3333H21.6667C21.8889 22 22 21.8889 22 21.6666V20.6666L20.6667 20Z" fill="#092B3C"/>
<path d="M21.6667 18H20.3333H0.333333C0.111111 18 0 18.1111 0 18.3333V20.6667H20.6667H22V18.3333C22 18.1111 21.7778 18 21.6667 18Z" fill="#83BA41"/>
<mask id="mask0_144_114" style="mask-type:luminance" maskUnits="userSpaceOnUse" x="0" y="0" width="22" height="22">
<path d="M22 0H0V22H22V0Z" fill="white"/>
</mask>
<g mask="url(#mask0_144_114)">
<path d="M15.3334 9.66664H14.0001H13.1112C12.7779 9.66664 12.4446 9.99997 12.4446 10.3333C12.4446 10.6666 12.7779 11 13.1112 11H13.7779L8.00011 16.6666L1.11122 9.77775C0.888997 9.55553 0.444553 9.55553 0.222331 9.77775C0.000108508 9.99997 0.000108508 10.4444 0.222331 10.6666L7.11122 17.5555C7.66678 18.1111 8.44455 18.1111 9.00011 17.5555L14.6668 11.8889V12.5555C14.6668 12.8889 15.0001 13.2222 15.3334 13.2222C15.6668 13.2222 16.0001 12.8889 16.0001 12.5555V10.3333C16.0001 9.88886 15.6668 9.66664 15.3334 9.66664Z" fill="#092B3C"/>
</g>
<path d="M13.6667 4.33333L11.5556 0.333333C11.4444 0.111111 11.2222 0 11 0C10.7778 0 10.5556 0.111111 10.4444 0.333333L8.33333 4.33333C8.11111 4.77778 8 5.22222 8 5.77778C8 7.44444 9.33333 8.77778 11 8.77778C12.6667 8.77778 14 7.44444 14 5.77778C14 5.22222 13.8889 4.77778 13.6667 4.33333Z" fill="#83BA41"/>
</g>
<defs>
<clipPath id="clip0_144_114">
<rect width="22" height="22" fill="white"/>
</clipPath>
</defs>
</svg>
