<svg width="24" height="22" viewBox="0 0 24 22" fill="none" xmlns="http://www.w3.org/2000/svg">
<g clip-path="url(#clip0_144_11)">
<path d="M1.60728 13.5631C0.857282 12.068 0.428711 10.2524 0.428711 8.65049C0.428711 4.05825 4.28585 0.427185 9.00014 0.427185C13.5001 0.427185 17.2501 4.16505 17.2501 8.75728L18.8573 13.8835H16.393V16.233C16.393 17.6214 15.3216 18.6893 13.9287 18.6893H11.0359L10.6073 21.466H1.50014L2.143 18.5825C2.67871 16.9806 2.35728 15.1651 1.60728 13.5631Z" fill="#83BA41"/>
<path d="M23.4642 13.2427L11.7856 7.15531L23.4642 1.06793V13.2427Z" fill="#CCDEE4"/>
<path d="M0.964286 8.65046C0.964286 7.3689 1.28571 6.08735 1.92857 4.91259C2.03571 4.699 1.92857 4.37861 1.71429 4.27182C1.5 4.16502 1.17857 4.27182 1.07143 4.48541C0.428571 5.76696 0 7.26211 0 8.65046C0 10.3592 0.428571 12.1747 1.17857 13.7767C1.92857 15.2718 2.14286 16.9806 1.71429 18.5825L1.07143 21.466C0.964286 21.6796 1.17857 22 1.39286 22H1.5C1.71429 22 1.92857 21.8932 1.92857 21.6796L2.57143 18.7961C3 16.9806 2.78571 15.0582 1.92857 13.3495C1.28571 11.9611 0.964286 10.2524 0.964286 8.65046Z" fill="#092B3C"/>
<path d="M23.6787 12.8155L12.8573 7.15534L23.7858 1.49515C24.0001 1.38835 24.1073 1.06796 24.0001 0.854369C23.893 0.640777 23.5715 0.533981 23.3573 0.640777L16.393 4.27184C14.7858 1.60194 12.0001 0 9.00011 0C7.28582 0 5.57154 0.427184 4.17868 1.38835C3.9644 1.49515 3.85725 1.81553 3.9644 2.02913C4.17868 2.24272 4.39297 2.24272 4.60725 2.13592C5.89297 1.38835 7.39297 0.961165 9.00011 0.961165C11.6787 0.961165 14.143 2.34951 15.643 4.69903L12.1073 6.40777C11.893 6.51456 11.2501 6.94175 11.2501 7.15534C11.3573 7.58252 12.4287 8.00971 12.4287 8.00971L17.143 10.466L18.1073 13.4563H16.1787C15.9644 13.4563 15.7501 13.6699 15.7501 13.8835V16.233C15.7501 17.301 14.893 18.1553 13.8215 18.1553H10.9287C10.7144 18.1553 10.5001 18.3689 10.5001 18.5825L10.0715 21.3592C10.0715 21.5728 10.1787 21.8932 10.5001 21.8932H10.6073C10.8215 21.8932 11.0358 21.7864 11.0358 21.466L11.4644 19.1165H13.9287C15.5358 19.1165 16.8215 17.835 16.8215 16.233V14.3107H18.8573C18.9644 14.3107 19.1787 14.2039 19.2858 14.0971C19.393 13.9903 19.393 13.7767 19.393 13.6699L18.5358 11L23.3573 13.5631C23.4644 13.5631 23.4644 13.5631 23.5715 13.5631C23.7858 13.5631 23.893 13.4563 24.0001 13.3495C24.0001 13.2427 23.893 12.9223 23.6787 12.8155Z" fill="#092B3C"/>
<path d="M2.78571 3.52429C2.67857 3.52429 2.57143 3.52429 2.46429 3.41749C2.35714 3.3107 2.25 3.2039 2.25 3.09711C2.25 2.99031 2.25 2.88351 2.35714 2.77672C2.46429 2.66992 2.57143 2.66992 2.67857 2.66992C2.78571 2.66992 2.89286 2.66992 3 2.77672C3.21429 2.77672 3.21429 2.99031 3.21429 3.09711C3.21429 3.2039 3.21429 3.3107 3.10714 3.41749C3 3.52429 2.89286 3.52429 2.78571 3.52429Z" fill="#092B3C"/>
</g>
<defs>
<clipPath id="clip0_144_11">
<rect width="24" height="22" fill="white"/>
</clipPath>
</defs>
</svg>
