<svg width="19" height="24" viewBox="0 0 19 24" fill="none" xmlns="http://www.w3.org/2000/svg">
<g clip-path="url(#clip0_144_126)">
<path d="M17.0488 0.415588H18.384C18.4867 0.415588 18.5894 0.519485 18.5894 0.623381V23.4805C18.5894 23.5844 18.4867 23.6883 18.384 23.6883H17.0488V0.415588Z" fill="#83BA41"/>
<path d="M17.0491 0.415588V23.6883L15.8166 23.1688L8.42204 20.1558C8.31934 20.1558 8.31934 20.052 8.31934 19.9481V4.15585C8.31934 4.05195 8.31934 3.94806 8.42204 3.94806L15.8166 0.935069L17.0491 0.415588Z" fill="#83BA41"/>
<path d="M15.8166 0.935059V23.1688L8.42204 20.1558C8.31934 20.1558 8.31934 20.0519 8.31934 19.948V4.15584C8.31934 4.05194 8.31934 3.94805 8.42204 3.94805L15.8166 0.935059Z" fill="#83BA41"/>
<path d="M15.4053 2.70129V21.4026L14.1729 20.8831L9.85938 18.9091V5.1948L14.1729 3.22077L15.4053 2.70129Z" fill="#D9E6EA"/>
<path d="M14.2754 3.22076V20.8831L9.96191 18.9091V5.19479L14.2754 3.22076Z" fill="#E0EAED"/>
<path d="M5.54626 3.63634C5.54626 4.7792 4.62193 5.61037 3.59491 5.61037C2.46518 5.61037 1.64355 4.67531 1.64355 3.63634C1.64355 2.49349 2.56788 1.66232 3.59491 1.66232C4.62193 1.55842 5.54626 2.49349 5.54626 3.63634Z" fill="#83BA41"/>
<path d="M18.589 24H17.0485C16.8431 24 16.6377 23.7922 16.6377 23.5844V0.415584C16.6377 0.207792 16.8431 0 17.0485 0H18.589C18.7945 0 18.9999 0.207792 18.9999 0.415584V23.6883C18.9999 23.8961 18.7945 24 18.589 24ZM17.4593 23.2727H18.2809V0.831169H17.4593V23.2727Z" fill="#092B3C"/>
<path d="M17.0486 24C16.9459 24 16.9459 24 16.9459 24L8.21615 20.3636C8.11344 20.2597 8.01074 20.1558 8.01074 19.9481V4.05195C8.01074 3.84416 8.11344 3.74026 8.21615 3.63636L16.8432 0C16.9459 0 17.1513 0 17.254 0C17.3567 0.103896 17.4594 0.311688 17.4594 0.415584V23.6883C17.4594 23.8961 17.254 24 17.0486 24ZM8.72966 19.7403L16.6378 23.0649V1.03896L8.72966 4.25974V19.7403Z" fill="#092B3C"/>
<path d="M15.405 21.7143C15.3023 21.7143 15.3023 21.7143 15.1996 21.7143L9.65365 19.2208C9.55094 19.1169 9.44824 19.013 9.44824 18.8052V5.09089C9.44824 4.8831 9.55094 4.7792 9.65365 4.6753L15.1996 2.1818C15.3023 2.0779 15.5077 2.1818 15.6104 2.1818C15.7131 2.28569 15.8158 2.38959 15.8158 2.49348V21.1948C15.8158 21.6104 15.7131 21.7143 15.405 21.7143ZM10.2699 18.5974L14.9942 20.6753V3.32465L10.2699 5.40258V18.5974Z" fill="#092B3C"/>
<path d="M3.59458 6.02599C2.25945 6.02599 1.23242 4.98702 1.23242 3.63638C1.23242 2.28573 2.25945 1.24677 3.59458 1.24677C4.92972 1.24677 5.95675 2.28573 5.95675 3.63638C5.95675 4.88313 4.82702 6.02599 3.59458 6.02599ZM3.59458 1.97404C2.67026 1.97404 2.05404 2.70131 2.05404 3.53248C2.05404 4.36365 2.67026 5.19482 3.59458 5.19482C4.41621 5.19482 5.13512 4.46754 5.13512 3.63638C5.13512 3.22079 4.92972 2.80521 4.62161 2.49352C4.41621 2.18183 4.00539 1.97404 3.59458 1.97404Z" fill="#092B3C"/>
<path d="M3.5944 1.97403C3.389 1.97403 3.18359 1.76623 3.18359 1.55844V0.415584C3.18359 0.207792 3.389 0 3.5944 0C3.79981 0 4.00522 0.207792 4.00522 0.415584V1.66234C4.00522 1.87013 3.79981 1.97403 3.5944 1.97403Z" fill="#092B3C"/>
<path d="M3.5944 7.16885C3.389 7.16885 3.18359 6.96106 3.18359 6.75327V5.61041C3.18359 5.40262 3.389 5.19482 3.5944 5.19482C3.79981 5.19482 4.00522 5.40262 4.00522 5.61041V6.85716C4.00522 7.06495 3.79981 7.16885 3.5944 7.16885Z" fill="#092B3C"/>
<path d="M2.56745 2.28571C2.46475 2.28571 2.25934 2.18181 2.25934 2.07792L1.64313 1.03896C1.54042 0.831164 1.64313 0.623372 1.74583 0.519476C1.84853 0.415579 2.15664 0.519476 2.25934 0.623372L2.87556 1.66233C2.97826 1.76623 2.97826 1.97402 2.87556 2.07792C2.87556 2.18181 2.67015 2.28571 2.56745 2.28571Z" fill="#092B3C"/>
<path d="M5.13483 6.75324C5.03213 6.75324 4.82673 6.64934 4.82673 6.54545L4.21051 5.50649C4.10781 5.29869 4.21051 5.0909 4.31321 4.987C4.51862 4.88311 4.72402 4.987 4.82673 5.0909L5.44294 6.12986C5.54565 6.23376 5.54565 6.44155 5.44294 6.54545C5.44294 6.75324 5.34024 6.75324 5.13483 6.75324Z" fill="#092B3C"/>
<path d="M1.84888 3.01301C1.74618 3.01301 1.74618 3.01301 1.64348 2.90911L0.616452 2.28574C0.411047 2.28574 0.411047 1.97405 0.51375 1.76626C0.616452 1.66236 0.821858 1.55846 1.02726 1.66236L2.05429 2.28574C2.2597 2.38963 2.2597 2.59742 2.2597 2.70132C2.15699 2.90911 2.05429 3.01301 1.84888 3.01301Z" fill="#092B3C"/>
<path d="M6.26439 5.61036C6.16169 5.61036 6.16169 5.61036 6.05899 5.50646L5.03196 4.88309C4.92926 4.88309 4.82656 4.5714 4.92926 4.36361C5.03196 4.25971 5.23737 4.15581 5.44277 4.25971L6.4698 4.88309C6.67521 4.98698 6.67521 5.19477 6.67521 5.29867C6.67521 5.50646 6.4698 5.61036 6.26439 5.61036Z" fill="#092B3C"/>
<path d="M1.54054 4.05193H0.410811C0.205405 4.05193 0 3.84414 0 3.63635C0 3.42856 0.205405 3.22076 0.410811 3.22076H1.64324C1.84865 3.22076 2.05405 3.42856 2.05405 3.63635C1.95135 3.84414 1.84865 4.05193 1.54054 4.05193Z" fill="#092B3C"/>
<path d="M6.77801 4.05193H5.54558C5.34017 4.05193 5.13477 3.84414 5.13477 3.63635C5.13477 3.42856 5.34017 3.22076 5.54558 3.22076H6.77801C6.98341 3.22076 7.18882 3.42856 7.18882 3.63635C7.08612 3.84414 6.98341 4.05193 6.77801 4.05193Z" fill="#092B3C"/>
<path d="M0.821944 5.61036C0.616538 5.61036 0.513836 5.50646 0.411133 5.29867C0.411133 5.09088 0.411133 4.98698 0.616538 4.88309L1.64357 4.25971C1.84897 4.15581 2.05438 4.25971 2.15708 4.36361C2.25978 4.5714 2.15708 4.77919 2.05438 4.88309L1.02735 5.50646C0.924646 5.61036 0.924646 5.61036 0.821944 5.61036Z" fill="#092B3C"/>
<path d="M5.2378 3.01301C5.13509 3.01301 4.92969 2.90911 4.92969 2.70132C4.92969 2.49353 4.92969 2.38963 5.13509 2.28574L6.16212 1.66236C6.36753 1.55846 6.57293 1.66236 6.67563 1.76626C6.77834 1.97405 6.67563 2.18184 6.57293 2.28574L5.5459 2.90911C5.4432 3.01301 5.3405 3.01301 5.2378 3.01301Z" fill="#092B3C"/>
<path d="M1.95154 6.75325C1.84884 6.75325 1.64343 6.64935 1.64343 6.54546C1.54073 6.44156 1.54073 6.23377 1.64343 6.12987L2.25965 5.09091C2.36235 4.98701 2.46505 4.88312 2.56776 4.88312C2.67046 4.88312 2.87587 4.98701 2.87587 5.09091C2.97857 5.19481 2.97857 5.4026 2.87587 5.50649L2.25965 6.54546C2.25965 6.75325 2.15695 6.75325 1.95154 6.75325Z" fill="#092B3C"/>
<path d="M4.51892 2.28571C4.41622 2.28571 4.31352 2.18182 4.21082 2.07792C4.10811 1.97402 4.10811 1.76623 4.21082 1.66233L4.82703 0.623374C4.92973 0.415581 5.13514 0.415581 5.34055 0.519478C5.54595 0.623374 5.64865 0.831166 5.44325 1.03896L4.92974 2.07792C4.82703 2.18182 4.72433 2.28571 4.51892 2.28571Z" fill="#092B3C"/>
<path d="M11.5027 9.24677C11.4 9.24677 11.2973 9.24677 11.1946 9.14287L7.29187 5.09093C7.18917 4.88313 7.18917 4.67534 7.29187 4.57145C7.39457 4.46755 7.70268 4.36365 7.80538 4.57145L11.8108 8.62339C11.9135 8.72729 11.9135 8.93508 11.9135 9.03898C11.8108 9.14287 11.6054 9.24677 11.5027 9.24677Z" fill="#092B3C"/>
<path d="M11.5026 13.6104C11.3999 13.6104 11.2972 13.6104 11.1945 13.5065L7.29175 9.45457C7.08634 9.35068 7.08634 9.14289 7.29175 8.93509C7.39445 8.8312 7.70256 8.7273 7.80526 8.93509L11.8107 12.987C11.9134 13.0909 11.9134 13.2987 11.9134 13.4026C11.8107 13.5065 11.6053 13.6104 11.5026 13.6104Z" fill="#092B3C"/>
<path d="M11.5028 18.0779C11.4001 18.0779 11.2974 18.0779 11.1947 17.9741L7.18933 13.9221C7.08663 13.7143 7.08663 13.5065 7.18933 13.4026C7.29203 13.2987 7.60014 13.1948 7.70285 13.4026L11.7082 17.4546C11.811 17.5585 11.811 17.7663 11.811 17.8702C11.811 17.9741 11.6055 18.0779 11.5028 18.0779Z" fill="#092B3C"/>
</g>
<defs>
<clipPath id="clip0_144_126">
<rect width="19" height="24" fill="white"/>
</clipPath>
</defs>
</svg>
