<svg width="24" height="22" viewBox="0 0 24 22" fill="none" xmlns="http://www.w3.org/2000/svg">
<g clip-path="url(#clip0_144_40)">
<path d="M23.2534 0.431396H22.0801V21.5687H23.2534V0.431396Z" fill="#83BA41"/>
<path d="M17.9199 8.7353L21.3333 12.1863V9.05883L17.9199 5.60785V8.7353Z" fill="white"/>
<path d="M21.3333 13.2647L17.9199 9.81372V12.9412L21.3333 16.3922V13.2647Z" fill="white"/>
<path d="M17.9199 4.42158L21.3333 7.9804V4.74511L17.9199 1.29413V4.42158Z" fill="white"/>
<path d="M21.3333 17.4706L17.9199 14.0196V17.147L21.3333 20.598V17.4706Z" fill="white"/>
<path d="M17.9199 21.5686H21.2266L17.9199 18.2255V21.5686Z" fill="white"/>
<path d="M21.333 0.431396H18.0264L21.333 3.66669V0.431396Z" fill="white"/>
<path d="M9.9204 11.2157C9.9204 10.4608 9.38707 9.92156 8.74707 9.70587V12.7255C9.38707 12.5098 9.9204 11.8627 9.9204 11.2157Z" fill="white"/>
<path d="M7.99958 16.3922V5.9314C7.99958 5.71571 7.89292 5.60787 7.78625 5.60787C7.67958 5.60787 7.57292 5.50002 7.46625 5.60787L4.90625 7.11767V15.2059L7.46625 16.7157C7.67958 16.8236 7.78625 16.7157 7.78625 16.7157C7.89292 16.7157 7.99958 16.6079 7.99958 16.3922Z" fill="#83BA41"/>
<path d="M4.1604 14.9902V7.33331H1.49374C1.06707 7.33331 0.74707 7.65684 0.74707 8.08821V14.2353C0.74707 14.6666 1.06707 14.9902 1.49374 14.9902H4.1604Z" fill="#83BA41"/>
<path d="M10.2396 6.90195C10.3463 6.90195 10.453 6.90195 10.5596 6.79411L12.7996 4.5294C12.9063 4.42156 12.9063 4.09803 12.7996 3.99019L11.733 2.91176H11.9463C12.1596 2.91176 12.373 2.69607 12.373 2.48038C12.373 2.2647 12.1596 2.04901 11.9463 2.04901H10.773C10.6663 2.15685 10.453 2.2647 10.453 2.48038V3.66666C10.453 3.88234 10.6663 4.09803 10.8796 4.09803C11.093 4.09803 11.3063 3.88234 11.3063 3.66666V3.45097L12.053 4.20587L10.0263 6.25489C9.91962 6.47058 9.91962 6.68627 10.0263 6.79411C10.133 6.90195 10.2396 6.90195 10.2396 6.90195Z" fill="#072B3D"/>
<path d="M10.5596 15.5294C10.453 15.4216 10.133 15.4216 10.0263 15.5294C9.91962 15.6373 9.91962 15.9608 10.0263 16.0686L12.053 18.1177L11.3063 18.8726V18.6569C11.3063 18.4412 11.093 18.2255 10.8796 18.2255C10.6663 18.2255 10.453 18.4412 10.453 18.6569V19.8432C10.453 20.0588 10.6663 20.2745 10.8796 20.2745H12.053C12.2663 20.2745 12.4796 20.0588 12.4796 19.8432C12.4796 19.6275 12.2663 19.4118 12.053 19.4118H11.733L12.7996 18.3334C12.9063 18.2255 12.9063 17.902 12.7996 17.7941L10.5596 15.5294Z" fill="#072B3D"/>
<path d="M13.9735 5.93138C13.7601 6.03922 13.7601 6.36275 13.9735 6.4706C15.0401 7.76471 15.6801 9.4902 15.6801 11.2157C15.6801 12.9412 15.0401 14.5588 13.9735 15.9608C13.8668 16.1765 13.8668 16.3922 13.9735 16.5C14.0801 16.6079 14.0801 16.6079 14.1868 16.6079C14.2935 16.6079 14.4001 16.6079 14.5068 16.5C15.6801 15.098 16.4268 13.1569 16.4268 11.3235C16.4268 9.38236 15.7868 7.54903 14.5068 6.14707C14.4001 5.82354 14.1868 5.82354 13.9735 5.93138Z" fill="#072B3D"/>
<path d="M13.2267 7.33334C13.12 7.11766 12.9067 7.11766 12.6933 7.2255C12.48 7.33334 12.48 7.54903 12.5867 7.76472C13.3333 8.7353 13.76 9.92158 13.76 11.1079C13.76 12.2941 13.3333 13.4804 12.5867 14.451C12.48 14.6667 12.48 14.8824 12.6933 14.9902C12.6933 15.098 12.8 15.098 12.9067 15.098C13.0133 15.098 13.12 15.098 13.2267 14.9902C14.08 13.9118 14.5067 12.5098 14.5067 11.2157C14.5067 9.81374 13.9733 8.41178 13.2267 7.33334Z" fill="#072B3D"/>
<mask id="mask0_144_40" style="mask-type:luminance" maskUnits="userSpaceOnUse" x="0" y="0" width="24" height="22">
<path d="M24 0H0V22H24V0Z" fill="white"/>
</mask>
<g mask="url(#mask0_144_40)">
<path d="M11.3066 13.6961C11.4133 13.6961 11.4133 13.8039 11.5199 13.8039C11.6266 13.8039 11.7333 13.6961 11.8399 13.5882C12.3733 12.8333 12.5866 12.0784 12.5866 11.2157C12.5866 10.3529 12.3733 9.4902 11.8399 8.84314C11.7333 8.62745 11.5199 8.51961 11.3066 8.62745C11.0933 8.73529 11.0933 8.95098 11.1999 9.16667C11.6266 9.70588 11.8399 10.4608 11.8399 11.1078C11.8399 11.8627 11.6266 12.5098 11.1999 13.049C11.0933 13.3725 11.0933 13.5882 11.3066 13.6961Z" fill="#072B3D"/>
</g>
<mask id="mask1_144_40" style="mask-type:luminance" maskUnits="userSpaceOnUse" x="0" y="0" width="24" height="22">
<path d="M24 0H0V22H24V0Z" fill="white"/>
</mask>
<g mask="url(#mask1_144_40)">
<path d="M22.0795 17.3627V0.431373C22.0795 0.215686 21.8662 0 21.6529 0C21.5462 0 21.3329 0.215686 21.3329 0.431373V3.77451L17.8129 0.215686C17.5995 0 17.1729 0.107843 17.1729 0.539216V21.5686C17.1729 21.7843 17.3862 22 17.5995 22C17.8129 22 18.0262 21.7843 18.0262 21.5686V18.2255L21.5462 21.7843C21.7595 22 22.1862 21.8922 22.1862 21.4608V17.3627H22.0795ZM21.3329 12.1863L17.9195 8.73529V5.60784L21.3329 9.05882V12.1863ZM17.9195 9.81373L21.3329 13.2647V16.3922L17.9195 12.9412V9.81373ZM21.3329 7.98039L17.9195 4.52941V1.29412L21.3329 4.7451V7.98039ZM17.9195 14.0196L21.3329 17.4706V20.598L17.9195 17.1471V14.0196Z" fill="#072B3D"/>
</g>
<path d="M23.6796 0C23.4663 0 23.2529 0.215686 23.2529 0.431373V21.5686C23.2529 21.7843 23.4663 22 23.6796 22C23.8929 22 24.1063 21.7843 24.1063 21.5686V0.431373C23.9996 0.215686 23.8929 0 23.6796 0Z" fill="#072B3D"/>
<path d="M10.6667 11.2157C10.6667 10.0294 9.81333 9.16666 8.74667 8.95097V5.93136C8.74667 5.49999 8.53333 5.17646 8.21333 4.96078C7.89333 4.74509 7.46667 4.74509 7.04 4.96078L4.48 6.57842H1.49333C0.64 6.57842 0 7.22548 0 8.08823V14.2353C0 15.098 0.64 15.7451 1.49333 15.7451H4.48L7.04 17.3627C7.25333 17.4706 7.46667 17.5784 7.57333 17.5784C7.78667 17.5784 8 17.5784 8.10667 17.4706C8.42667 17.2549 8.64 16.9314 8.64 16.5V13.5882C9.81333 13.2647 10.6667 12.2941 10.6667 11.2157ZM7.46667 16.7157L5.01333 15.2059V7.11764L7.46667 5.60783C7.68 5.49999 7.78667 5.60783 7.78667 5.60783C7.89333 5.60783 8 5.71568 8 5.93136V16.3921C8 16.6078 7.89333 16.7157 7.78667 16.7157C7.78667 16.7157 7.57333 16.8235 7.46667 16.7157ZM0.746667 14.2353V8.08823C0.746667 7.65685 1.06667 7.33333 1.49333 7.33333H4.16V14.9902H1.49333C1.06667 14.9902 0.746667 14.6667 0.746667 14.2353ZM8.74667 9.70587C9.38667 9.92156 9.92 10.4608 9.92 11.2157C9.92 11.9706 9.38667 12.5098 8.74667 12.7255V9.70587Z" fill="#072B3D"/>
</g>
<defs>
<clipPath id="clip0_144_40">
<rect width="24" height="22" fill="white"/>
</clipPath>
</defs>
</svg>
