<svg width="22" height="22" viewBox="0 0 22 22" fill="none" xmlns="http://www.w3.org/2000/svg">
<g clip-path="url(#clip0_144_23)">
<path d="M6.74643 18.1867L1.75977 21.6089V0.391113L6.74643 3.81334V18.1867Z" fill="#83BA41"/>
<path d="M14.471 14.7645V18.1867H6.74658V3.81335H14.471V7.23558" fill="#CCDEE4"/>
<path d="M19.4576 8.89775H9.97311C9.48422 8.89775 9.48422 8.2133 9.97311 8.2133H19.4576C20.6309 8.2133 20.6309 6.4533 19.4576 6.4533C18.9687 6.4533 18.9687 5.76886 19.4576 5.76886C20.3376 5.76886 21.022 6.4533 21.022 7.3333C21.022 8.2133 20.3376 8.89775 19.4576 8.89775Z" fill="#092B3C"/>
<path d="M20.2401 14.96C19.7513 14.96 19.7513 14.2756 20.2401 14.2756C21.609 14.2756 21.609 12.1244 20.2401 12.1244H9.28903C8.80014 12.1244 8.80014 11.44 9.28903 11.44H20.2401C21.2179 11.44 22.0001 12.2222 22.0001 13.2C22.0001 14.1778 21.2179 14.96 20.2401 14.96Z" fill="#092B3C"/>
<path d="M18.5777 10.6578H12.2221C11.7332 10.6578 11.7332 9.97333 12.2221 9.97333H18.5777C19.0666 9.97333 19.0666 10.6578 18.5777 10.6578Z" fill="#092B3C"/>
<mask id="mask0_144_23" style="mask-type:luminance" maskUnits="userSpaceOnUse" x="0" y="0" width="22" height="22">
<path d="M22 0H0V22H22V0Z" fill="white"/>
</mask>
<g mask="url(#mask0_144_23)">
<path d="M16.329 13.7867H10.8535C10.3646 13.7867 10.3646 13.1022 10.8535 13.1022H16.329C16.8179 13.1022 16.8179 13.7867 16.329 13.7867Z" fill="#092B3C"/>
</g>
<mask id="mask1_144_23" style="mask-type:luminance" maskUnits="userSpaceOnUse" x="0" y="0" width="22" height="22">
<path d="M22 0H0V22H22V0Z" fill="white"/>
</mask>
<g mask="url(#mask1_144_23)">
<path d="M16.0356 17.8933H14.8622V14.7644C14.8622 14.2755 14.1778 14.2755 14.1778 14.7644V17.8933H7.04V4.10665H14.08V7.23554C14.08 7.72443 14.7644 7.72443 14.7644 7.23554V3.81332C14.7644 3.61776 14.5689 3.4222 14.3733 3.4222H6.84444L1.95556 0.0977601C1.76 -0.0977955 1.36889 0.0977601 1.36889 0.391093V10.7555H0.391111C0.195556 10.7555 0 10.9511 0 11.1466V13.0044C0 13.4933 0.684444 13.4933 0.684444 13.0044V11.44H1.36889V21.8044C1.36889 21.9022 1.46667 22.0978 1.56444 22.0978C1.66222 22.1955 1.85778 22.1955 1.95556 22.0978L6.84444 18.5778H16.0356C16.4267 18.5778 16.4267 17.8933 16.0356 17.8933ZM2.05333 0.97776L6.35556 3.91109V17.9911L2.05333 20.9244V0.97776Z" fill="#092B3C"/>
</g>
</g>
<defs>
<clipPath id="clip0_144_23">
<rect width="22" height="22" fill="white"/>
</clipPath>
</defs>
</svg>
