<svg width="23" height="22" viewBox="0 0 23 22" fill="none" xmlns="http://www.w3.org/2000/svg">
<g clip-path="url(#clip0_144_68)">
<path d="M22.5909 18.6948H0.408691C0.408691 17.7652 1.12425 17.0422 2.04425 17.0422H20.9554C21.8754 17.0422 22.5909 17.7652 22.5909 18.6948Z" fill="white"/>
<path d="M22.5911 19.108H0.408889C0.204444 19.108 0 18.9014 0 18.6948C0 17.5587 0.92 16.6291 2.04444 16.6291H20.9556C22.08 16.6291 23 17.5587 23 18.6948C23 18.9014 22.7956 19.108 22.5911 19.108ZM0.92 18.2817H22.1822C21.9778 17.7652 21.5689 17.4554 21.0578 17.4554H2.04444C1.53333 17.4554 1.02222 17.7652 0.92 18.2817Z" fill="#092B3C"/>
<path d="M22.5909 18.6948H0.408691V21.5868H22.5909V18.6948Z" fill="#83BA41"/>
<path d="M22.5911 22H0.408889C0.204444 22 0 21.7934 0 21.5868V18.6948C0 18.4882 0.204444 18.2817 0.408889 18.2817H22.5911C22.7956 18.2817 23 18.4882 23 18.6948V21.5868C23 21.7934 22.7956 22 22.5911 22ZM0.817778 21.1737H22.1822V19.108H0.817778V21.1737Z" fill="#092B3C"/>
<path d="M2.45309 19.9343C2.35087 19.9343 2.14643 19.831 2.04421 19.7277L1.63532 18.9014C1.53309 18.6949 1.63532 18.4883 1.83976 18.385C2.04421 18.2817 2.24865 18.385 2.35087 18.5916L2.75976 19.4179C2.86198 19.6244 2.75976 19.831 2.55532 19.9343C2.55532 19.9343 2.55532 19.9343 2.45309 19.9343Z" fill="#092B3C"/>
<path d="M4.08884 19.9343C3.98661 19.9343 3.78217 19.831 3.67995 19.7277L3.27106 18.9014C3.16884 18.6949 3.27106 18.4883 3.4755 18.385C3.67995 18.2817 3.88439 18.385 3.98661 18.5916L4.3955 19.4179C4.49773 19.6244 4.3955 19.831 4.19106 19.9343C4.19106 19.9343 4.19106 19.9343 4.08884 19.9343Z" fill="#092B3C"/>
<path d="M5.72458 19.9343C5.62236 19.9343 5.41791 19.831 5.31569 19.7277L4.9068 18.9014C4.80458 18.6949 4.9068 18.4883 5.11125 18.385C5.31569 18.2817 5.52013 18.385 5.62236 18.5916L6.13347 19.3146C6.23569 19.5212 6.13347 19.7277 5.92902 19.831C5.92902 19.9343 5.8268 19.9343 5.72458 19.9343Z" fill="#092B3C"/>
<path d="M7.35983 19.9343C7.25761 19.9343 7.05317 19.831 6.95094 19.7277L6.54206 18.9014C6.43983 18.6949 6.54206 18.4883 6.7465 18.385C6.95094 18.2817 7.15539 18.385 7.25761 18.5916L7.6665 19.4179C7.76872 19.6244 7.6665 19.831 7.46206 19.9343C7.56428 19.9343 7.46206 19.9343 7.35983 19.9343Z" fill="#092B3C"/>
<path d="M8.99558 19.9343C8.89335 19.9343 8.68891 19.831 8.58669 19.7277L8.1778 18.9014C8.07558 18.6949 8.1778 18.4883 8.38224 18.385C8.58669 18.2817 8.79113 18.385 8.89335 18.5916L9.30224 19.4179C9.40446 19.6244 9.30224 19.831 9.0978 19.9343C9.20002 19.9343 9.0978 19.9343 8.99558 19.9343Z" fill="#092B3C"/>
<path d="M10.7334 19.9343C10.6311 19.9343 10.4267 19.831 10.3245 19.7277L9.91559 18.9014C9.81337 18.6949 9.91559 18.4883 10.12 18.385C10.3245 18.2817 10.5289 18.385 10.6311 18.5916L11.04 19.4179C11.1423 19.6244 11.04 19.831 10.8356 19.9343H10.7334Z" fill="#092B3C"/>
<path d="M12.3691 19.9343C12.2669 19.9343 12.0624 19.831 11.9602 19.7277L11.5513 18.9014C11.4491 18.6949 11.5513 18.4883 11.7558 18.385C11.9602 18.2817 12.1647 18.385 12.2669 18.5916L12.6758 19.4179C12.778 19.6244 12.6758 19.831 12.4713 19.9343H12.3691Z" fill="#092B3C"/>
<path d="M14.0044 19.9343C13.9021 19.9343 13.6977 19.831 13.5955 19.7277L13.1866 18.9014C13.0844 18.6949 13.1866 18.4883 13.391 18.385C13.5955 18.2817 13.7999 18.385 13.9021 18.5916L14.311 19.4179C14.4133 19.6244 14.311 19.831 14.1066 19.9343H14.0044Z" fill="#092B3C"/>
<path d="M15.6401 19.9343C15.5379 19.9343 15.3334 19.831 15.2312 19.7277L14.8223 18.9014C14.7201 18.6949 14.8223 18.4883 15.0268 18.385C15.2312 18.2817 15.4357 18.385 15.5379 18.5916L15.9468 19.4179C16.049 19.6244 15.9468 19.831 15.7423 19.9343H15.6401Z" fill="#092B3C"/>
<path d="M17.2754 19.9343C17.1731 19.9343 16.9687 19.831 16.8665 19.7277L16.4576 18.9014C16.3554 18.6949 16.4576 18.4883 16.662 18.385C16.8665 18.2817 17.0709 18.385 17.1731 18.5916L17.582 19.4179C17.6842 19.6244 17.582 19.831 17.3776 19.9343H17.2754Z" fill="#092B3C"/>
<path d="M18.9111 19.9343C18.8089 19.9343 18.6044 19.831 18.5022 19.7277L18.0933 18.9014C17.9911 18.6949 18.0933 18.4883 18.2978 18.385C18.5022 18.2817 18.7067 18.385 18.8089 18.5916L19.2178 19.4179C19.32 19.6244 19.2178 19.831 19.0133 19.9343C19.0133 19.9343 19.0133 19.9343 18.9111 19.9343Z" fill="#092B3C"/>
<path d="M20.5468 19.9343C20.4446 19.9343 20.2402 19.831 20.138 19.7277L19.7291 18.9014C19.6268 18.6949 19.7291 18.4883 19.9335 18.385C20.138 18.2817 20.3424 18.385 20.4446 18.5916L20.8535 19.4179C20.9557 19.6244 20.8535 19.831 20.6491 19.9343C20.6491 19.9343 20.6491 19.9343 20.5468 19.9343Z" fill="#092B3C"/>
<path d="M20.138 22C20.0357 22 20.0357 22 19.9335 22C19.7291 21.8967 19.6268 21.6901 19.7291 21.4835L20.138 20.6572C20.2402 20.4507 20.4446 20.3474 20.6491 20.4507C20.8535 20.554 20.9557 20.7605 20.8535 20.9671L20.4446 21.7934C20.4446 21.8967 20.3424 22 20.138 22Z" fill="#092B3C"/>
<path d="M18.5022 22C18.4 22 18.4 22 18.2978 22C18.0933 21.8967 17.9911 21.6901 18.0933 21.4835L18.5022 20.6572C18.6044 20.4507 18.8089 20.3474 19.0133 20.4507C19.2178 20.554 19.32 20.7605 19.2178 20.9671L18.8089 21.7934C18.8089 21.8967 18.7067 22 18.5022 22Z" fill="#092B3C"/>
<path d="M16.8665 22C16.7642 22 16.7642 22 16.662 22C16.4576 21.8967 16.3554 21.6901 16.4576 21.4835L16.8665 20.6572C16.9687 20.4507 17.1731 20.3474 17.3776 20.4507C17.582 20.554 17.6842 20.7605 17.582 20.9671L17.1731 21.7934C17.1731 21.8967 17.0709 22 16.8665 22Z" fill="#092B3C"/>
<path d="M15.2312 22C15.129 22 15.129 22 15.0268 22C14.8223 21.8967 14.7201 21.6901 14.8223 21.4835L15.2312 20.6572C15.3334 20.4507 15.5379 20.3474 15.7423 20.4507C15.9468 20.554 16.049 20.7605 15.9468 20.9671L15.5379 21.7934C15.5379 21.8967 15.3334 22 15.2312 22Z" fill="#092B3C"/>
<path d="M13.5955 22C13.4933 22 13.4933 22 13.391 22C13.1866 21.8967 13.0844 21.6901 13.1866 21.4835L13.5955 20.6572C13.6977 20.4507 13.9021 20.3474 14.1066 20.4507C14.311 20.554 14.4133 20.7605 14.311 20.9671L13.9021 21.7934C13.9021 21.8967 13.6977 22 13.5955 22Z" fill="#092B3C"/>
<path d="M11.9602 22C11.858 22 11.858 22 11.7558 22C11.5513 21.8967 11.4491 21.6901 11.5513 21.4835L11.9602 20.6572C12.0624 20.4507 12.2669 20.3474 12.4713 20.4507C12.6758 20.554 12.778 20.7605 12.6758 20.9671L12.2669 21.7934C12.2669 21.8967 12.0624 22 11.9602 22Z" fill="#092B3C"/>
<path d="M10.3245 22C10.2223 22 10.2223 22 10.12 22C9.91559 21.8967 9.81337 21.6901 9.91559 21.4835L10.3245 20.6572C10.4267 20.4507 10.6311 20.3474 10.8356 20.4507C11.04 20.554 11.1423 20.7605 11.04 20.9671L10.6311 21.7934C10.6311 21.8967 10.4267 22 10.3245 22Z" fill="#092B3C"/>
<path d="M8.68874 22C8.58651 22 8.58651 22 8.48429 22C8.27985 21.8967 8.17763 21.6901 8.27985 21.4835L8.68874 20.6572C8.79096 20.4507 8.9954 20.3474 9.19985 20.4507C9.40429 20.554 9.50651 20.7605 9.40429 20.9671L8.9954 21.7934C8.9954 21.8967 8.79096 22 8.68874 22Z" fill="#092B3C"/>
<path d="M7.05348 22C6.95126 22 6.95126 22 6.84904 22C6.64459 21.8967 6.54237 21.6901 6.64459 21.4835L7.05348 20.6572C7.15571 20.4507 7.36015 20.3474 7.56459 20.4507C7.76904 20.554 7.87126 20.7605 7.76904 20.9671L7.36015 21.7934C7.25793 21.8967 7.15571 22 7.05348 22Z" fill="#092B3C"/>
<path d="M5.31569 22C5.21347 22 5.21347 22 5.11125 22C4.9068 21.8967 4.80458 21.6901 4.9068 21.4835L5.41791 20.6572C5.52013 20.4507 5.72458 20.3474 5.92902 20.4507C6.13347 20.554 6.23569 20.7605 6.13347 20.9671L5.72458 21.7934C5.62236 21.8967 5.52013 22 5.31569 22Z" fill="#092B3C"/>
<path d="M3.67995 22C3.57773 22 3.57773 22 3.4755 22C3.27106 21.8967 3.16884 21.6901 3.27106 21.4835L3.78217 20.6572C3.88439 20.4507 4.08884 20.3474 4.29328 20.4507C4.49773 20.554 4.59995 20.7605 4.49773 20.9671L4.08884 21.7934C3.98661 21.8967 3.88439 22 3.67995 22Z" fill="#092B3C"/>
<path d="M2.04421 22C1.94198 22 1.94198 22 1.83976 22C1.63532 21.8967 1.53309 21.6901 1.63532 21.4835L2.14643 20.6572C2.24865 20.4507 2.45309 20.3474 2.65754 20.4507C2.86198 20.554 2.96421 20.7605 2.86198 20.9671L2.45309 21.7934C2.35087 21.8967 2.24865 22 2.04421 22Z" fill="#092B3C"/>
<path d="M16.8666 15.4929V10.6385C16.8666 9.50232 15.9466 8.67603 14.9244 8.67603H8.07552C7.0533 8.67603 6.1333 9.6056 6.1333 10.7418V16.3192C6.1333 16.7324 6.43997 17.0422 6.84886 17.0422H16.7644" fill="#CCDEE4"/>
<path d="M16.8667 17.4554H6.95111C6.33777 17.4554 5.82666 16.939 5.82666 16.3193V10.7418C5.82666 9.39907 6.84888 8.36621 8.17777 8.36621H14.9244C16.2533 8.36621 17.2755 9.39907 17.2755 10.7418V15.493C17.2755 15.6995 17.0711 15.9061 16.8667 15.9061C16.6622 15.9061 16.4578 15.6995 16.4578 15.493V10.6385C16.4578 9.81222 15.7422 9.08922 14.9244 9.08922H8.07555C7.25777 9.08922 6.54222 9.81222 6.54222 10.6385V16.216C6.54222 16.4225 6.74666 16.5258 6.84888 16.5258H16.7644C16.9689 16.5258 17.1733 16.7324 17.1733 16.939C17.2755 17.2488 17.0711 17.4554 16.8667 17.4554Z" fill="#092B3C"/>
<path d="M14.8224 9.08921H8.17793C7.97349 9.08921 7.76904 8.88264 7.76904 8.67606V5.06104C7.76904 3.40846 9.09793 2.06573 10.7335 2.06573H12.2668C13.9024 2.06573 15.2313 3.40846 15.2313 5.06104V8.67606C15.2313 8.98592 15.0268 9.08921 14.8224 9.08921ZM8.58682 8.26292H14.3113V5.06104C14.3113 3.8216 13.3913 2.89203 12.1646 2.89203H10.7335C9.50682 2.89203 8.58682 3.8216 8.58682 5.06104V8.26292Z" fill="#092B3C"/>
<path d="M14.0042 11.6714H12.3687V14.1503H14.0042V12.9108H13.5953" fill="#CCDEE4"/>
<path d="M14.0044 14.5634H12.3689C12.1644 14.5634 11.96 14.3568 11.96 14.1503V11.6714C11.96 11.4648 12.1644 11.2582 12.3689 11.2582H14.0044C14.2088 11.2582 14.4133 11.4648 14.4133 11.6714C14.4133 11.878 14.2088 12.0845 14.0044 12.0845H12.7777V13.7371H13.5955V13.324C13.3911 13.324 13.1866 13.1174 13.1866 12.9108C13.1866 12.7042 13.3911 12.4977 13.5955 12.4977H14.0044C14.2088 12.4977 14.4133 12.7042 14.4133 12.9108V14.1503C14.4133 14.3568 14.2088 14.5634 14.0044 14.5634Z" fill="#092B3C"/>
<path d="M8.99532 14.5634C8.79087 14.5634 8.58643 14.3568 8.58643 14.1503V11.6714C8.58643 11.4648 8.79087 11.2582 8.99532 11.2582C9.19976 11.2582 9.4042 11.4648 9.4042 11.6714V14.1503C9.4042 14.3568 9.30198 14.5634 8.99532 14.5634Z" fill="#092B3C"/>
<path d="M10.7335 14.5634C10.6313 14.5634 10.5291 14.5634 10.4269 14.4601L9.20021 13.1174C8.99576 12.9108 8.99576 12.7042 9.20021 12.4976L10.4269 11.2582C10.6313 11.0516 10.8358 11.0516 11.0402 11.2582C11.2447 11.4648 11.2447 11.6713 11.0402 11.8779L10.1202 12.8075L11.0402 13.7371C11.2447 13.9436 11.2447 14.1502 11.0402 14.3568C10.938 14.4601 10.8358 14.5634 10.7335 14.5634Z" fill="#092B3C"/>
<path d="M19.7287 7.84978C19.5243 7.84978 19.3198 7.6432 19.3198 7.43663V3.71832C19.3198 3.51175 19.5243 3.30518 19.7287 3.30518C19.9332 3.30518 20.1376 3.51175 20.1376 3.71832V7.43663C20.1376 7.74649 19.9332 7.84978 19.7287 7.84978Z" fill="#092B3C"/>
<path d="M19.7287 7.84979C19.6264 7.84979 19.5242 7.84979 19.422 7.74651L18.1953 6.50707C17.9909 6.3005 17.9909 6.09392 18.1953 5.88735C18.3998 5.68078 18.6042 5.68078 18.8087 5.88735L19.7287 6.81693L20.6487 5.88735C20.8531 5.68078 21.0575 5.68078 21.262 5.88735C21.4664 6.09392 21.4664 6.3005 21.262 6.50707L20.0353 7.74651C19.9331 7.84979 19.8309 7.84979 19.7287 7.84979Z" fill="#092B3C"/>
<path d="M2.04463 11.6714C1.84019 11.6714 1.63574 11.4648 1.63574 11.2582V7.43664C1.63574 7.23007 1.84019 7.0235 2.04463 7.0235C2.24908 7.0235 2.45352 7.23007 2.45352 7.43664V11.155C2.45352 11.4648 2.24908 11.6714 2.04463 11.6714Z" fill="#092B3C"/>
<path d="M2.04458 11.6713C1.94235 11.6713 1.84013 11.6713 1.73791 11.5681L0.511243 10.2253C0.306799 10.0188 0.306799 9.81219 0.511243 9.60561C0.715688 9.39904 0.920132 9.39904 1.12458 9.60561L2.04458 10.6385L2.96458 9.7089C3.16902 9.50233 3.37347 9.50233 3.57791 9.7089C3.78235 9.91547 3.78235 10.122 3.57791 10.3286L2.35124 11.5681C2.24902 11.5681 2.1468 11.6713 2.04458 11.6713Z" fill="#092B3C"/>
<path d="M20.2401 11.8779C20.2401 12.0845 20.0357 12.2911 19.8313 12.2911C19.6268 12.2911 19.4224 12.0845 19.4224 11.8779C19.4224 11.6714 19.6268 11.4648 19.8313 11.4648C20.0357 11.3615 20.2401 11.5681 20.2401 11.8779Z" fill="#092B3C"/>
<path d="M16.4576 2.47887C15.7421 2.47887 15.231 1.96244 15.231 1.23944C15.231 0.516432 15.7421 0 16.4576 0C17.1732 0 17.6843 0.516432 17.6843 1.23944C17.6843 1.96244 17.071 2.47887 16.4576 2.47887ZM16.4576 0.826291C16.2532 0.826291 16.0487 1.03286 16.0487 1.23944C16.0487 1.44601 16.2532 1.65258 16.4576 1.65258C16.6621 1.65258 16.8665 1.44601 16.8665 1.23944C16.8665 1.03286 16.6621 0.826291 16.4576 0.826291Z" fill="#092B3C"/>
<path d="M5.31557 4.13146C5.21335 4.13146 5.11113 4.13146 5.00891 4.02817L3.78224 2.78874C3.5778 2.58216 3.5778 2.37559 3.78224 2.16902C3.98668 2.06573 4.19113 2.06573 4.39557 2.16902L5.62224 3.40845C5.82668 3.61503 5.82668 3.8216 5.62224 4.02817C5.52002 4.13146 5.41779 4.13146 5.31557 4.13146Z" fill="#092B3C"/>
<path d="M4.08891 4.13146C3.98668 4.13146 3.88446 4.13146 3.78224 4.02817C3.5778 3.8216 3.5778 3.61503 3.78224 3.40845L5.00891 2.16902C5.21335 2.06573 5.52002 2.06573 5.62224 2.16902C5.82668 2.37559 5.82668 2.58216 5.62224 2.78874L4.39557 4.02817C4.29335 4.13146 4.19113 4.13146 4.08891 4.13146Z" fill="#092B3C"/>
</g>
<defs>
<clipPath id="clip0_144_68">
<rect width="23" height="22" fill="white"/>
</clipPath>
</defs>
</svg>
