<svg width="28" height="28" viewBox="0 0 28 28" fill="none" xmlns="http://www.w3.org/2000/svg">
<g clip-path="url(#clip0_86_256)">
<path d="M16.7255 23.6586C16.5162 23.724 16.3083 23.7902 16.1009 23.8564C13.603 24.6532 11.2436 25.4058 7.4473 23.6802C7.22172 23.5776 6.95533 23.6398 6.7981 23.8312C6.78101 23.8521 5.31621 25.6282 3.99218 26.5414V12.6793C5.30681 12.8055 7.35587 13.3868 8.28256 14.9917C8.43359 15.2532 8.76791 15.3427 9.02938 15.1919C9.29107 15.0409 9.38058 14.7063 9.22955 14.4449C7.91364 12.1657 4.97463 11.5576 3.44531 11.5576C3.14325 11.5576 2.89844 11.8024 2.89844 12.1044V27.4532C2.89844 27.6166 2.97171 27.7717 3.09796 27.8755C3.19665 27.9567 3.3197 28 3.44531 28C3.48056 28 3.5158 27.9966 3.55084 27.9898C3.63714 27.9727 3.7164 27.9479 3.79309 27.9135C5.1357 27.3128 6.7432 25.5673 7.37382 24.8425C11.338 26.5239 13.9271 25.6978 16.4335 24.8985C16.6384 24.8331 16.8439 24.7673 17.0507 24.703C17.3391 24.6133 17.4999 24.3067 17.4102 24.0183C17.3205 23.7299 17.0139 23.5689 16.7255 23.6586Z" fill="#B62025"/>
<path d="M23.7688 7.58638C23.5934 6.90279 23.4547 6.36275 23.4024 6.04189C23.1999 4.79755 21.9511 1.93822 19.8535 0.648585C18.7675 -0.0194109 17.6303 -0.172151 16.4742 0.193997C14.8827 0.698145 14.0763 1.13052 13.6914 1.68615C13.2543 2.31697 13.4395 2.97941 13.6185 3.62006C13.6192 3.6222 13.6198 3.62434 13.6204 3.62669C13.4117 3.76511 13.2359 3.95075 13.1067 4.17463C12.8873 4.55487 12.8285 4.99664 12.9418 5.41876L13.1646 6.25018C13.2776 6.67229 13.5493 7.02562 13.9296 7.24523C14.1831 7.39156 14.4643 7.46654 14.7486 7.46654C14.8817 7.46654 15.0154 7.44945 15.1472 7.41634C16.0207 7.9145 17.1535 7.99269 17.8258 7.98713C17.8681 9.33915 17.6312 10.5211 17.3819 11.7644C17.154 12.9013 16.92 14.067 16.92 15.3671C15.7524 14.4338 14.5185 13.8301 13.2396 13.5674C12.9439 13.5065 12.6547 13.6972 12.5938 13.9929C12.5331 14.2888 12.7237 14.5778 13.0195 14.6387C14.4638 14.9354 15.8588 15.7482 17.1653 17.055C17.2704 17.1598 17.4103 17.2152 17.5522 17.2152C17.6342 17.2152 17.7171 17.1966 17.7942 17.1586C18.0042 17.0547 18.1249 16.8287 18.0941 16.5963C17.869 14.8974 18.1533 13.48 18.4543 11.9795C18.7108 10.7001 18.974 9.38059 18.9144 7.85918C19.4083 7.72566 19.8024 7.49687 20.0898 7.1758C20.2912 6.95086 20.272 6.605 20.0468 6.40377C19.8219 6.20232 19.4762 6.22155 19.2748 6.44649C19.0763 6.66823 18.7401 6.81179 18.2757 6.87288C17.8867 6.91198 16.9316 6.92501 16.1546 6.6693C16.3755 6.30123 16.4533 5.84771 16.3337 5.40103L16.1108 4.56961C15.9291 3.8903 15.3437 3.42503 14.6817 3.36115C14.6785 3.34941 14.6751 3.33744 14.6719 3.32548C14.5078 2.73909 14.4583 2.49962 14.5903 2.30907C14.8118 1.98928 15.5362 1.63851 16.8045 1.23669C17.6442 0.970726 18.4774 1.0863 19.2806 1.58019C21.0549 2.67137 22.1538 5.17908 22.323 6.21771C22.3832 6.58706 22.527 7.14803 22.7094 7.85832C23.4387 10.7001 24.7963 15.9898 23.3979 19.2315C23.0914 19.9418 22.9801 20.5297 22.8906 21.0023C22.7925 21.5192 22.7325 21.7993 22.5411 22.0187C22.3059 22.2878 21.8246 22.5047 21.0261 22.7014C20.733 22.7736 20.5538 23.0699 20.626 23.363C20.6873 23.6125 20.9107 23.7793 21.1564 23.7793C21.1997 23.7793 21.2438 23.774 21.2875 23.7633C23.4767 23.2241 23.7312 22.4404 23.9651 21.2058C24.0486 20.7645 24.1435 20.2642 24.4022 19.6648C25.9486 16.0798 24.5305 10.5547 23.7688 7.58638ZM15.0547 4.85266L15.2775 5.68408C15.3555 5.97546 15.182 6.27581 14.8909 6.35378C14.7507 6.39138 14.6037 6.37151 14.4764 6.29803C14.3493 6.22475 14.2585 6.10705 14.2212 5.96713L13.9983 5.13571C13.9607 4.99579 13.9806 4.8486 14.0541 4.7215C14.1276 4.59418 14.2451 4.5036 14.385 4.46601C14.6762 4.38803 14.9765 4.5615 15.0547 4.85266Z" fill="#B62025"/>
<path d="M8.7683 19.4814C8.64226 19.7559 8.76253 20.0806 9.03703 20.2067C9.12782 20.2483 10.5121 20.8668 12.5413 20.8668C13.763 20.8668 15.2184 20.6425 16.7659 19.9332C17.0404 19.8074 17.1611 19.4829 17.0352 19.2084C16.9092 18.9339 16.5847 18.8132 16.3102 18.9391C12.671 20.607 9.53477 19.2313 9.49226 19.2123C9.21818 19.0869 8.89412 19.2074 8.7683 19.4814Z" fill="#B62025"/>
<path d="M10.8984 14.571C10.9106 14.571 10.923 14.5705 10.9354 14.5699C11.2368 14.5498 11.4648 14.2892 11.4447 13.9878C11.4246 13.6863 11.1631 13.4582 10.8626 13.4785H10.8623C10.5609 13.4986 10.3332 13.7592 10.3533 14.0606C10.3725 14.3494 10.613 14.571 10.8984 14.571Z" fill="#B62025"/>
<path d="M18.8922 23.0923H18.8917C18.595 23.1481 18.3995 23.4339 18.4553 23.7306C18.5046 23.9934 18.7343 24.1767 18.9923 24.1767C19.0257 24.1767 19.0596 24.1737 19.0936 24.1673C19.3905 24.1115 19.586 23.8259 19.5305 23.529C19.4747 23.2322 19.1889 23.0368 18.8922 23.0923Z" fill="#B62025"/>
</g>
<defs>
<clipPath id="clip0_86_256">
<rect width="28" height="28" fill="white"/>
</clipPath>
</defs>
</svg>
