<svg width="28" height="28" viewBox="0 0 28 28" fill="none" xmlns="http://www.w3.org/2000/svg">
<g clip-path="url(#clip0_77_149)">
<path d="M28 10.0511L25.8759 2.12406L17.9489 0L12.8155 5.13346L5.803 3.25451L0 9.05751L2.12406 16.9846L9.13648 18.8635L11.0154 25.8759L18.9425 28L24.7455 22.197L22.8665 15.1846L28 10.0511ZM18.439 1.82924L24.5369 3.46314L26.1708 9.56102L21.7069 14.0249L15.609 12.391L13.9751 6.29316L18.439 1.82924ZM3.46314 15.6455L1.82924 9.54762L6.29316 5.0837L12.391 6.71759L14.0249 12.8155L9.56102 17.2794L3.46314 15.6455ZM22.9164 21.7069L18.4524 26.1708L12.3546 24.5369L10.7207 18.439L15.1846 13.9751L21.2825 15.609L22.9164 21.7069Z" fill="#B62025"/>
</g>
<defs>
<clipPath id="clip0_77_149">
<rect width="28" height="28" fill="white"/>
</clipPath>
</defs>
</svg>
