<svg width="28" height="28" viewBox="0 0 28 28" fill="none" xmlns="http://www.w3.org/2000/svg">
<g clip-path="url(#clip0_84_247)">
<path d="M4.45453 12.5746C4.41397 14.7684 5.25526 16.8865 6.78994 18.4546C8.19793 19.9541 8.95918 21.9474 8.90902 24.0038V24.8184C8.90902 26.5757 10.3336 28.0003 12.0909 28.0003H13.3637C15.1209 28.0003 16.5455 26.5757 16.5455 24.8184V23.7748C16.528 21.8185 17.2746 19.9326 18.6265 18.5183C21.8287 15.2593 21.7825 10.0215 18.5234 6.81946C16.8918 5.21632 14.6692 4.36024 12.3838 4.45477C8.02992 4.68453 4.58107 8.21647 4.45453 12.5746ZM12.6382 21.6364L11.5628 14.6364H13.8919L12.8165 21.6364H12.6382ZM15.3109 22.9091C15.3109 23.1954 15.2728 23.4819 15.2728 23.7746V24.1819H10.1818V24.0036C10.1798 23.6379 10.1586 23.2726 10.1182 22.9091H15.3109ZM13.3637 26.7272H12.0909C11.2838 26.7249 10.5654 26.2154 10.2964 25.4545H15.1583C14.8892 26.2154 14.1708 26.7249 13.3637 26.7272ZM12.4346 5.72722H12.7273C16.5933 5.7292 19.7258 8.86474 19.7238 12.7307C19.7229 14.5618 19.0045 16.3195 17.7227 17.6272C16.6367 18.7358 15.879 20.1233 15.5337 21.6364H14.1081L15.1836 14.6364H15.909C16.2604 14.6364 16.5454 14.3514 16.5454 14C16.5454 13.6485 16.2604 13.3636 15.909 13.3636H9.54555C9.19412 13.3636 8.90917 13.6485 8.90917 14C8.90917 14.3514 9.19412 14.6364 9.54555 14.6364H10.271L11.3464 21.6364H9.89545C9.54036 20.1178 8.7843 18.7223 7.70639 17.5955C6.40177 16.2642 5.6884 14.4636 5.72728 12.6001C5.83157 8.9117 8.75 5.9213 12.4346 5.72722Z" fill="#B62025"/>
<path d="M13.3636 3.18189V0.636377C13.3636 0.284952 13.0786 0 12.7272 0C12.3758 0 12.0908 0.284952 12.0908 0.636377V3.18189C12.0908 3.53331 12.3758 3.81826 12.7272 3.81826C13.0786 3.81811 13.3636 3.53331 13.3636 3.18189Z" fill="#B62025"/>
<path d="M22.4573 3.36638L19.9119 5.91189C19.6623 6.15934 19.6607 6.5623 19.9083 6.81188C19.9095 6.8131 19.9107 6.81432 19.9119 6.81554C20.1594 7.06512 20.5623 7.0668 20.8119 6.8192C20.8131 6.81798 20.8143 6.81676 20.8156 6.81554L23.3611 4.27003C23.6106 4.02045 23.6106 3.61597 23.3611 3.36638C23.1115 3.1168 22.7068 3.1168 22.4573 3.36638Z" fill="#B62025"/>
<path d="M2.99732 3.36638C2.74774 3.1168 2.34326 3.1168 2.09368 3.36638C1.8441 3.61597 1.8441 4.02045 2.09368 4.27003L4.63919 6.81554C4.88664 7.06512 5.28959 7.0668 5.53917 6.8192L5.54283 6.81554C5.79241 6.56809 5.79409 6.16513 5.54649 5.91555C5.54527 5.91433 5.54405 5.91311 5.54283 5.91189L2.99732 3.36638Z" fill="#B62025"/>
<path d="M21.6365 14C21.6365 14.3514 21.9214 14.6364 22.2729 14.6364H24.8184C25.1698 14.6364 25.4547 14.3514 25.4547 14C25.4547 13.6486 25.1698 13.3636 24.8184 13.3636H22.2729C21.9214 13.3636 21.6365 13.6486 21.6365 14Z" fill="#B62025"/>
<path d="M0 14C0 14.3514 0.284952 14.6364 0.636378 14.6364H3.18189C3.53331 14.6364 3.81826 14.3514 3.81826 14C3.81826 13.6486 3.53331 13.3636 3.18189 13.3636H0.636378C0.284952 13.3636 0 13.6486 0 14Z" fill="#B62025"/>
</g>
<defs>
<clipPath id="clip0_84_247">
<rect width="28" height="28" fill="white"/>
</clipPath>
</defs>
</svg>
