<svg width="39" height="20" viewBox="0 0 39 20" fill="none" xmlns="http://www.w3.org/2000/svg">
<path d="M38.3762 11.6698H27.5898C24.2942 11.6698 21.3148 10.2207 19.8971 9.4039C20.2022 9.23258 20.4593 9.07031 20.6387 8.92646C21.5016 8.23444 24.6299 7.25708 26.8166 7.68569C29.1839 8.14968 38.0203 7.89075 38.3953 7.8795C38.7396 7.86915 39.0101 7.58724 38.9996 7.24983C38.989 6.91241 38.7022 6.64533 38.3571 6.65756C38.2976 6.65935 34.3781 6.77435 31.0745 6.72757C30.8554 5.23162 28.9285 1.94786 24.7257 1.19895C23.2802 0.941327 21.6823 1.2948 20.1853 1.88739C19.645 1.35723 18.471 0.367967 17.0087 0.105453C15.1112 -0.23514 13.4575 0.313769 12.4043 0.834316C11.1382 1.46008 10.0468 2.39726 9.48486 3.34129C8.69971 4.65997 8.30938 5.84557 8.16244 6.91975H0.623665C0.279235 6.91975 0 7.19343 0 7.531C0 7.86858 0.279235 8.14226 0.623665 8.14226H8.09267C8.11446 9.08466 8.3043 9.93325 8.53306 10.706C8.66179 11.1409 8.80598 11.5598 8.96422 11.9642H0.623665C0.279235 11.9642 0 12.2379 0 12.5755C0 12.9131 0.279235 13.1868 0.623665 13.1868H9.51122C10.7842 15.6915 12.7351 17.5269 15.4234 18.7587C17.4166 19.6721 19.2254 20 20.7956 20C22.4585 20 23.8538 19.6321 24.916 19.2022C27.7566 18.0527 30.0791 15.6956 31.1368 12.8924H38.3763C38.7208 12.8924 39 12.6187 39 12.2811C39 11.9435 38.7207 11.6698 38.3762 11.6698ZM24.2053 12.4699C23.5858 12.8581 22.5845 13.1942 21.4097 13.2773C19.3857 13.4206 17.5097 12.5247 16.3359 11.0551C16.9969 10.7813 17.8302 10.4246 18.6049 10.0598C19.3784 10.5605 21.4901 11.8105 24.2053 12.4699ZM24.5026 2.40174C26.5581 2.76801 27.8694 3.83355 28.6076 4.66291C29.3382 5.48378 29.6826 6.25405 29.7996 6.6997C28.6234 6.66326 27.6256 6.59757 27.0611 6.48698C24.5673 5.99814 21.0836 7.11877 19.849 7.98024C18.6479 8.81831 17.3397 9.3162 15.6678 10.0043C15.3708 9.40056 15.1769 8.73779 15.1131 8.03566C15.0492 7.33214 15.1319 6.71249 15.3589 6.19137C15.7159 5.90514 16.956 4.94033 18.5274 4.05157C20.9147 2.7011 22.9806 2.13034 24.5026 2.40174ZM24.4399 18.0722C21.8101 19.1363 18.875 18.9908 15.9516 17.6512C12.7879 16.2015 10.7531 13.8182 9.731 10.3654C9.21635 8.62678 8.96073 6.64713 10.5621 3.95743C11.3902 2.5667 14.0826 0.822498 16.7839 1.308C17.6693 1.46693 18.4502 2.00565 18.9543 2.43467C16.5152 3.63298 14.5839 5.22999 14.446 5.34523C14.38 5.40041 14.3263 5.46854 14.2887 5.54523C13.9224 6.2908 13.7818 7.16515 13.8708 8.14397C14.1986 11.7525 17.3378 14.5147 20.9875 14.5147C21.1569 14.5147 21.3282 14.5088 21.4996 14.4966C23.3772 14.3639 25.0114 13.6811 25.7233 12.7603C26.3274 12.8441 26.9516 12.8923 27.5898 12.8923H29.7949C28.7901 15.1937 26.8197 17.1091 24.4399 18.0722Z" fill="#B62025"/>
</svg>
